<!DOCTYPE svg PUBLIC "-//W3C//DTD SVG 1.1//EN" "http://www.w3.org/Graphics/SVG/1.1/DTD/svg11.dtd">
<!-- Uploaded to: SVG Repo, www.svgrepo.com, Transformed by: SVG Repo Mixer Tools -->
<svg fill="#fff200" height="800px" width="800px" version="1.1" id="Layer_1" xmlns="http://www.w3.org/2000/svg" xmlns:xlink="http://www.w3.org/1999/xlink" viewBox="0 0 512 512" xml:space="preserve">
<g id="SVGRepo_bgCarrier" stroke-width="0"/>
<g id="SVGRepo_tracerCarrier" stroke-linecap="round" stroke-linejoin="round"/>
<g id="SVGRepo_iconCarrier"> <g transform="translate(1 1)"> <g> <g> <path d="M502.467,24.6h-85.333c-5.12,0-8.533,3.413-8.533,8.533v25.6H306.2v-25.6c0-5.12-3.413-8.533-8.533-8.533h-85.333 c-5.12,0-8.533,3.413-8.533,8.533v25.6H101.4v-25.6c0-5.12-3.413-8.533-8.533-8.533H7.533C2.413,24.6-1,28.013-1,33.133v187.733 v256c0,5.12,3.413,8.533,8.533,8.533h494.933c5.12,0,8.533-3.413,8.533-8.533v-256V33.133C511,28.013,507.587,24.6,502.467,24.6z M425.667,41.667h68.267v170.667h-68.267v-42.667v-51.2v-51.2V41.667z M306.2,212.333V178.2h102.4v34.133H306.2z M195.869,280.6 c3.821,27.339,25.761,48.416,53.528,50.936c0.203,0.019,0.409,0.029,0.613,0.046c0.699,0.056,1.397,0.114,2.103,0.147 c0.957,0.046,1.919,0.072,2.887,0.072s1.93-0.026,2.887-0.072c0.706-0.033,1.404-0.09,2.103-0.147 c0.204-0.017,0.41-0.027,0.613-0.046c27.767-2.52,49.707-23.597,53.528-50.936h128.603v136.533H67.267V280.6H195.869z M203.8,161.133H101.4V127h102.4V161.133z M101.4,178.2h102.4v34.133H101.4V178.2z M297.667,272.067 c0,23.893-18.773,42.667-42.667,42.667c-23.893,0-42.667-18.773-42.667-42.667V229.4h85.333V272.067z M408.6,161.133H306.2V127 h102.4V161.133z M408.6,75.8v34.133H306.2V75.8H408.6z M220.867,41.667h68.267v25.6v51.2v51.2v42.667h-68.267v-42.667v-51.2 v-51.2V41.667z M203.8,75.8v34.133H101.4V75.8H203.8z M16.067,41.667h68.267v25.6v51.2v51.2v42.667H16.067V41.667z M493.933,468.333H16.067V229.4h76.8h102.4v34.133H58.733c-5.12,0-8.533,3.413-8.533,8.533v153.6c0,5.12,3.413,8.533,8.533,8.533 h392.533c5.12,0,8.533-3.413,8.533-8.533v-153.6c0-5.12-3.413-8.533-8.533-8.533H314.733V229.4h102.4h76.8V468.333z"/> <path d="M220.867,391.533h68.267c5.12,0,8.533-3.413,8.533-8.533s-3.413-8.533-8.533-8.533h-68.267 c-5.12,0-8.533,3.413-8.533,8.533S215.747,391.533,220.867,391.533z"/> <path d="M186.733,374.467c-5.12,0-8.533,3.413-8.533,8.533s3.413,8.533,8.533,8.533s8.533-3.413,8.533-8.533 S191.853,374.467,186.733,374.467z"/> <path d="M101.4,391.533h51.2c5.12,0,8.533-3.413,8.533-8.533s-3.413-8.533-8.533-8.533h-51.2c-5.12,0-8.533,3.413-8.533,8.533 S96.28,391.533,101.4,391.533z"/> <path d="M408.6,374.467h-51.2c-5.12,0-8.533,3.413-8.533,8.533s3.413,8.533,8.533,8.533h51.2c5.12,0,8.533-3.413,8.533-8.533 S413.72,374.467,408.6,374.467z"/> <path d="M323.267,374.467c-5.12,0-8.533,3.413-8.533,8.533s3.413,8.533,8.533,8.533S331.8,388.12,331.8,383 S328.387,374.467,323.267,374.467z"/> <path d="M323.267,323.267h25.6c5.12,0,8.533-3.413,8.533-8.533s-3.413-8.533-8.533-8.533h-25.6c-5.12,0-8.533,3.413-8.533,8.533 S318.147,323.267,323.267,323.267z"/> <path d="M383,323.267c5.12,0,8.533-3.413,8.533-8.533S388.12,306.2,383,306.2s-8.533,3.413-8.533,8.533 S377.88,323.267,383,323.267z"/> <path d="M186.733,323.267c5.12,0,8.533-3.413,8.533-8.533s-3.413-8.533-8.533-8.533s-8.533,3.413-8.533,8.533 S181.613,323.267,186.733,323.267z"/> <path d="M101.4,323.267h51.2c5.12,0,8.533-3.413,8.533-8.533s-3.413-8.533-8.533-8.533h-51.2c-5.12,0-8.533,3.413-8.533,8.533 S96.28,323.267,101.4,323.267z"/> <path d="M186.733,340.333h-51.2c-5.12,0-8.533,3.413-8.533,8.533c0,5.12,3.413,8.533,8.533,8.533h51.2 c5.12,0,8.533-3.413,8.533-8.533C195.267,343.747,191.853,340.333,186.733,340.333z"/> <path d="M101.4,357.4c5.12,0,8.533-3.413,8.533-8.533c0-5.12-3.413-8.533-8.533-8.533s-8.533,3.413-8.533,8.533 C92.867,353.987,96.28,357.4,101.4,357.4z"/> <path d="M408.6,357.4c5.12,0,8.533-3.413,8.533-8.533c0-5.12-3.413-8.533-8.533-8.533s-8.533,3.413-8.533,8.533 C400.067,353.987,403.48,357.4,408.6,357.4z"/> <path d="M331.8,348.867c0,5.12,3.413,8.533,8.533,8.533h34.133c5.12,0,8.533-3.413,8.533-8.533c0-5.12-3.413-8.533-8.533-8.533 h-34.133C335.213,340.333,331.8,343.747,331.8,348.867z"/> <path d="M306.2,357.4c5.12,0,8.533-3.413,8.533-8.533c0-5.12-3.413-8.533-8.533-8.533s-8.533,3.413-8.533,8.533 C297.667,353.987,301.08,357.4,306.2,357.4z"/> <path d="M220.867,357.4c5.12,0,8.533-3.413,8.533-8.533c0-5.12-3.413-8.533-8.533-8.533s-8.533,3.413-8.533,8.533 C212.333,353.987,215.747,357.4,220.867,357.4z"/> <path d="M255,357.4h17.067c5.12,0,8.533-3.413,8.533-8.533c0-5.12-3.413-8.533-8.533-8.533H255c-5.12,0-8.533,3.413-8.533,8.533 C246.467,353.987,249.88,357.4,255,357.4z"/> <path d="M237.933,263.533h8.533v25.6c0,5.12,3.413,8.533,8.533,8.533s8.533-3.413,8.533-8.533v-25.6h8.533 c5.12,0,8.533-3.413,8.533-8.533c0-5.12-3.413-8.533-8.533-8.533h-34.133c-5.12,0-8.533,3.413-8.533,8.533 C229.4,260.12,232.813,263.533,237.933,263.533z"/> </g> </g> </g> </g>
</svg>