<svg width="55" height="55" viewBox="0 0 55 55" fill="none" xmlns="http://www.w3.org/2000/svg">
<path d="M27.5 25.2083C26.8922 25.2083 26.3093 25.4497 25.8795 25.8795C25.4498 26.3092 25.2083 26.8921 25.2083 27.4999V36.6666C25.2083 37.2744 25.4498 37.8573 25.8795 38.287C26.3093 38.7168 26.8922 38.9583 27.5 38.9583C28.1078 38.9583 28.6907 38.7168 29.1204 38.287C29.5502 37.8573 29.7917 37.2744 29.7917 36.6666V27.4999C29.7917 26.8921 29.5502 26.3092 29.1204 25.8795C28.6907 25.4497 28.1078 25.2083 27.5 25.2083ZM28.3708 16.2249C27.8129 15.9957 27.1871 15.9957 26.6292 16.2249C26.3479 16.334 26.0909 16.4975 25.8729 16.7062C25.6705 16.9289 25.5077 17.1847 25.3917 17.4624C25.2634 17.7344 25.2006 18.0326 25.2083 18.3333C25.2066 18.6349 25.2644 18.9338 25.3784 19.213C25.4925 19.4922 25.6605 19.7462 25.8729 19.9603C26.0957 20.1628 26.3514 20.3255 26.6292 20.4416C26.9763 20.5842 27.3532 20.6394 27.7267 20.6023C28.1002 20.5651 28.4589 20.4368 28.7712 20.2286C29.0835 20.0204 29.3399 19.7387 29.5178 19.4082C29.6958 19.0777 29.7898 18.7086 29.7917 18.3333C29.7832 17.7265 29.5458 17.1453 29.1271 16.7062C28.9091 16.4975 28.6521 16.334 28.3708 16.2249ZM27.5 4.58325C22.9675 4.58325 18.5368 5.92729 14.7682 8.44541C10.9995 10.9635 8.06226 14.5426 6.32775 18.7301C4.59324 22.9176 4.13942 27.5253 5.02366 31.9707C5.90791 36.4161 8.09051 40.4995 11.2955 43.7044C14.5004 46.9094 18.5838 49.092 23.0292 49.9762C27.4746 50.8605 32.0823 50.4067 36.2698 48.6722C40.4573 46.9377 44.0364 44.0004 46.5545 40.2317C49.0726 36.4631 50.4167 32.0324 50.4167 27.4999C50.4167 24.4905 49.8239 21.5105 48.6722 18.7301C47.5206 15.9497 45.8325 13.4234 43.7045 11.2954C41.5765 9.16738 39.0502 7.47935 36.2698 6.32768C33.4894 5.17601 30.5095 4.58325 27.5 4.58325ZM27.5 45.8333C23.874 45.8333 20.3294 44.758 17.3145 42.7435C14.2996 40.729 11.9498 37.8658 10.5622 34.5158C9.17459 31.1658 8.81153 27.4796 9.51893 23.9233C10.2263 20.3669 11.9724 17.1003 14.5364 14.5363C17.1003 11.9723 20.367 10.2263 23.9233 9.51886C27.4797 8.81146 31.1659 9.17452 34.5159 10.5621C37.8658 11.9497 40.7291 14.2996 42.7436 17.3145C44.7581 20.3294 45.8333 23.8739 45.8333 27.4999C45.8333 32.3622 43.9018 37.0254 40.4636 40.4635C37.0255 43.9017 32.3623 45.8333 27.5 45.8333Z" fill="#E69853"/>
</svg>
