<!DOCTYPE svg PUBLIC "-//W3C//DTD SVG 1.1//EN" "http://www.w3.org/Graphics/SVG/1.1/DTD/svg11.dtd">
<!-- Uploaded to: SVG Repo, www.svgrepo.com, Transformed by: SVG Repo Mixer Tools -->
<svg height="64px" width="64px" version="1.1" id="Layer_1" xmlns="http://www.w3.org/2000/svg" xmlns:xlink="http://www.w3.org/1999/xlink" viewBox="0 0 512 512" xml:space="preserve" fill="#000000">
<g id="SVGRepo_bgCarrier" stroke-width="0"/>
<g id="SVGRepo_tracerCarrier" stroke-linecap="round" stroke-linejoin="round"/>
<g id="SVGRepo_iconCarrier"> <g> <ellipse style="fill:#ffffff;" cx="381.211" cy="33.479" rx="25.535" ry="25.643"/> <ellipse style="fill:#ffffff;" cx="130.79" cy="33.479" rx="25.535" ry="25.643"/> </g> <g> <ellipse style="fill:#000000;" cx="381.211" cy="96.925" rx="37.878" ry="38.037"/> <ellipse style="fill:#000000;" cx="130.79" cy="96.925" rx="37.878" ry="38.037"/> </g> <g> <path style="fill:#000000;" d="M130.79,337.285c-26.173,0-49.053-18.084-56.801-44.406 c-23.895,33.327-37.247,71.807-36.724,109.447h0.002c0.049,2.227,0.908,17.725,2.552,25.148c0.088,0.638,0.23,1.265,0.426,1.88 c10.724,44.084,47.858,74.811,90.546,74.811c42.916,0,80.22-31.053,90.714-75.516c1.682-7.947,2.758-24.067,2.807-26.324h0.003 c0.523-37.641-12.828-76.124-36.726-109.452C179.843,319.196,156.968,337.285,130.79,337.285z"/> <path style="fill:#000000;" d="M381.212,337.285c-26.175,0-49.053-18.085-56.8-44.407c-23.896,33.327-37.247,71.809-36.725,109.449 h0.002c0.049,2.228,0.908,17.716,2.551,25.141c0.087,0.638,0.229,1.265,0.423,1.88c10.724,44.088,47.861,74.817,90.548,74.817 c42.918,0,80.221-31.053,90.714-75.516l-0.038-0.009c0.108-0.35,0.203-0.722,0.284-1.121c1.649-7.406,2.512-22.962,2.561-25.195 h0.002c0.522-37.641-12.83-76.123-36.726-109.451C430.26,319.196,407.386,337.285,381.212,337.285z"/> </g> <g> <ellipse style="fill:#ffffff;" cx="130.79" cy="423.173" rx="37.878" ry="38.037"/> <ellipse style="fill:#ffffff;" cx="381.211" cy="423.173" rx="37.878" ry="38.037"/> </g> <path style="opacity:0.1;enable-background:new ;" d="M114.77,423.168c0-17.191,11.36-31.712,26.951-36.423 c-3.462-1.046-7.129-1.615-10.931-1.615c-20.918,0-37.88,17.031-37.88,38.038c0,21.007,16.961,38.036,37.88,38.036 c3.801,0,7.469-0.568,10.931-1.614C126.131,454.88,114.77,440.359,114.77,423.168z"/> <path style="opacity:0.1;enable-background:new ;" d="M365.189,423.168c0-17.191,11.361-31.713,26.952-36.423 c-3.462-1.046-7.128-1.615-10.93-1.615c-20.921,0-37.882,17.031-37.882,38.038c0,21.007,16.961,38.036,37.882,38.036 c3.801,0,7.468-0.568,10.93-1.614C376.55,454.88,365.189,440.359,365.189,423.168z"/> <g> <path style="fill:#ffffff;" d="M130.79,170.836c-1.384,0-2.771,0.419-3.951,1.261c-34.797,24.811-56.09,63.387-55.571,100.672 c0.12,2.429,0.895,14.06,1.912,17.133c6.848,27.928,30.461,47.383,57.609,47.383c27.335,0,51.081-19.717,57.747-47.948 c0.486-3.093,1.821-9.526,1.771-16.57h0.003c0.52-37.285-20.773-75.86-55.572-100.671 C133.561,171.257,132.176,170.836,130.79,170.836z"/> <path style="fill:#ffffff;" d="M385.161,172.097c-1.18-0.84-2.565-1.261-3.95-1.261c-1.385,0-2.77,0.419-3.949,1.261 c-34.8,24.812-56.095,63.388-55.575,100.673l0.004-0.001c0.044,1.658,0.561,11.032,1.601,15.773l0.098,0.554 c0.054,0.275,0.123,0.544,0.211,0.807c6.848,27.928,30.459,47.383,57.609,47.383c27.332,0,51.079-19.717,57.747-47.947 l-0.022-0.005c0.067-0.233,0.127-0.478,0.18-0.731c1.06-4.768,1.568-14.113,1.613-15.834h0.004 C441.251,235.48,419.956,196.906,385.161,172.097z"/> </g> <path style="opacity:0.1;enable-background:new ;" d="M72.579,427.473c-1.644-7.422-2.504-22.921-2.552-25.148h-0.002 c-0.769-55.358,28.478-112.528,77.147-152.447c-4.019-3.296-8.152-6.488-12.43-9.538c-1.179-0.84-2.563-1.261-3.95-1.261 c-1.384,0-2.769,0.421-3.95,1.261c-56.085,39.988-90.409,102.057-89.577,161.985h0.002c0.049,2.227,0.908,17.725,2.552,25.148 c0.088,0.638,0.23,1.265,0.426,1.88c10.724,44.084,47.858,74.811,90.546,74.811c5.571,0,11.046-0.535,16.383-1.543 c-35.548-6.715-64.845-34.935-74.17-73.267C72.899,429.057,72.667,428.111,72.579,427.473z"/> <path style="opacity:0.1;enable-background:new ;" d="M322.998,427.468c-1.643-7.426-2.503-22.914-2.551-25.141h-0.002 c-0.769-55.358,28.476-112.529,77.146-152.447c-4.019-3.296-8.152-6.488-12.429-9.538c-1.18-0.84-2.565-1.261-3.95-1.261 s-2.77,0.419-3.949,1.261c-56.086,39.986-90.409,102.057-89.576,161.985h0.002c0.049,2.228,0.908,17.716,2.551,25.141 c0.087,0.638,0.229,1.265,0.423,1.88c10.724,44.088,47.861,74.817,90.548,74.817c5.572,0,11.047-0.535,16.383-1.543 c-35.55-6.715-64.847-34.937-74.172-73.273C323.318,429.052,323.085,428.106,322.998,427.468z"/> <path style="opacity:0.1;enable-background:new ;" d="M365.189,96.923c0-17.191,11.361-31.713,26.952-36.423 c-3.462-1.046-7.128-1.614-10.93-1.614c-20.921,0-37.882,17.031-37.882,38.038c0,21.007,16.961,38.036,37.882,38.036 c3.801,0,7.468-0.568,10.93-1.614C376.55,128.633,365.189,114.113,365.189,96.923z"/> <path style="opacity:0.1;enable-background:new ;" d="M377.535,33.48c0-10.235,5.973-19.065,14.607-23.178 c-3.313-1.579-7.019-2.464-10.93-2.464c-14.103,0-25.536,11.479-25.536,25.643c0,14.162,11.432,25.643,25.536,25.643 c3.911,0,7.616-0.886,10.93-2.465C383.507,52.544,377.535,43.713,377.535,33.48z"/> <path style="opacity:0.1;enable-background:new ;" d="M114.77,96.923c0-17.191,11.36-31.712,26.951-36.423 c-3.462-1.046-7.129-1.614-10.931-1.614c-20.918,0-37.88,17.031-37.88,38.038c0,21.007,16.961,38.036,37.88,38.036 c3.801,0,7.469-0.568,10.931-1.614C126.131,128.633,114.77,114.113,114.77,96.923z"/> <path style="opacity:0.1;enable-background:new ;" d="M127.114,33.48c0-10.235,5.973-19.065,14.607-23.178 c-3.313-1.579-7.018-2.464-10.93-2.464c-14.102,0-25.535,11.479-25.535,25.643c0,14.162,11.433,25.643,25.535,25.643 c3.912,0,7.616-0.886,10.93-2.465C133.087,52.544,127.114,43.713,127.114,33.48z"/> <path d="M130.79,377.294c-25.208,0-45.716,20.579-45.716,45.875c0,25.295,20.508,45.873,45.716,45.873 c25.209,0,45.717-20.578,45.717-45.873C176.508,397.873,156,377.294,130.79,377.294z M130.79,453.369 c-16.566,0-30.043-13.547-30.043-30.2c0-16.654,13.477-30.202,30.043-30.202c16.567,0,30.044,13.548,30.044,30.202 C160.834,439.821,147.357,453.369,130.79,453.369z"/> <path d="M196.164,291.138c1.38-5.889,1.887-12.217,1.984-18.262c0.556-39.817-21.997-80.879-58.862-107.164 c-0.215-0.153-0.438-0.292-0.659-0.433v-23.172c12.736-2.193,23.974-9.666,30.981-20.944c2.284-3.677,1.156-8.509-2.52-10.793 c-3.678-2.285-8.509-1.154-10.793,2.52c-5.536,8.911-15.071,14.23-25.505,14.23c-16.566,0-30.043-13.547-30.043-30.2 c0-15.76,12.074-28.733,27.41-30.078c0.869,0.068,4.427,0.067,5.311-0.004c13.278,1.186,24.35,11.106,26.847,24.46 c0.795,4.255,4.886,7.062,9.143,6.263c4.255-0.795,7.058-4.889,6.263-9.143c-2.496-13.348-10.638-24.43-21.663-30.976 c5.125-5.01,8.657-11.652,9.745-19.083h17.351v6.945c0,4.328,3.509,7.837,7.837,7.837c4.328,0,7.837-3.509,7.837-7.837V19.524 c0-4.328-3.509-7.837-7.837-7.837c-4.328,0-7.837,3.509-7.837,7.837v3.164h-18.781C157.888,9.509,145.429,0,130.79,0 C112.39,0,97.418,15.018,97.418,33.48c0,9.39,3.88,17.886,10.108,23.971c-13.43,8-22.453,22.697-22.453,39.473 c0,22.613,16.394,41.444,37.88,45.186v23.172c-0.223,0.142-0.447,0.282-0.664,0.436c-36.86,26.281-59.412,67.344-58.857,107.162 c0.001,0.124,0.006,0.248,0.014,0.37c0.08,2.225,0.585,11.405,1.728,16.78c0.08,0.467,0.186,0.92,0.303,1.378 c-23.496,33.969-36.58,72.884-36.049,111.028c0.002,0.118,0.006,0.236,0.013,0.352c0.099,2.722,0.929,18.107,2.692,26.22 c0.135,0.853,0.327,1.693,0.577,2.521C44.386,478.926,84.673,512,130.791,512c46.569,0,87.009-33.536,98.342-81.552 c0.085-0.435,0.179-0.866,0.285-1.297c1.812-8.199,2.628-23.573,2.722-26.389c0.006-0.11,0.01-0.219,0.012-0.33 c0.529-38.049-12.14-76.721-36.035-111.106C196.132,291.263,196.15,291.202,196.164,291.138 C197.545,285.249,196.15,291.202,196.164,291.138C197.545,285.249,196.15,291.202,196.164,291.138 C197.545,285.249,196.15,291.202,196.164,291.138z M130.79,15.673c9.759,0,17.7,7.988,17.7,17.806s-7.94,17.806-17.7,17.806 s-17.698-7.988-17.698-17.806C113.092,23.662,121.032,15.673,130.79,15.673z M130.79,178.906 c32.309,23.3,52.081,59.053,51.689,93.523c-0.002,0.044-0.003,0.089-0.004,0.134c-0.006,0.25-0.02,0.59-0.04,0.992 c-0.816-0.961-1.633-1.919-2.468-2.871c-2.855-3.254-7.805-3.576-11.059-0.722c-3.254,2.855-3.577,7.806-0.722,11.059 c3.77,4.297,7.336,8.72,10.701,13.244c-7.699,21.023-26.632,35.183-48.096,35.183c-21.409,0-40.396-14.187-48.098-35.197 c11.216-15.028,24.688-28.917,40.083-41.047v24.74c0,4.328,3.509,7.837,7.837,7.837c4.328,0,7.837-3.509,7.837-7.837v-25.017 c3.757,2.95,7.434,6.005,10.971,9.167c3.227,2.884,8.18,2.607,11.065-0.62c2.884-3.227,2.607-8.182-0.62-11.065 c-6.518-5.826-13.442-11.36-20.578-16.449c-0.274-0.194-0.555-0.375-0.839-0.551V221.52c0-4.328-3.509-7.837-7.837-7.837 c-4.328,0-7.837,3.509-7.837,7.837v12.123c-0.162,0.106-0.326,0.205-0.484,0.318c-16.246,11.583-30.726,24.972-43.146,39.611 c-0.02-0.409-0.033-0.754-0.041-1.006c-0.001-0.039-0.002-0.076-0.004-0.114C78.704,237.973,98.475,202.213,130.79,178.906z M216.478,402.153c-0.063,2.852-0.976,17.383-2.374,23.661c-0.129,0.578-0.313,1.151-0.393,1.737 c-9.88,40.532-43.879,68.776-82.92,68.776c-38.971,0-73.073-28.302-82.93-68.826c-0.14-0.576-0.261-1.143-0.389-1.722 c-1.393-6.288-2.306-20.784-2.369-23.625c-0.001-0.044-0.002-0.088-0.004-0.132c-0.395-31.506,9.428-63.652,27.297-92.61 c11.798,21.677,33.852,35.71,58.395,35.71c24.597,0,46.597-13.997,58.383-35.665c17.965,29.262,27.694,61.683,27.308,92.563 C216.48,402.063,216.479,402.108,216.478,402.153z"/> <path d="M335.493,423.168c0,25.295,20.509,45.873,45.718,45.873c25.207,0,45.714-20.578,45.714-45.873s-20.507-45.875-45.714-45.875 C356.002,377.294,335.493,397.873,335.493,423.168z M411.252,423.168c0,16.653-13.477,30.2-30.041,30.2 c-16.567,0-30.045-13.547-30.045-30.2c0-16.654,13.478-30.202,30.045-30.202C397.775,392.967,411.252,406.515,411.252,423.168z"/> <path d="M474.749,408.033h0.001c4.328,0,7.837-3.508,7.837-7.836c0.002-37.357-13.064-75.441-36.081-108.75 c0.099-0.399,0.189-0.8,0.275-1.203c1.17-5.32,1.688-14.635,1.773-16.959c0.009-0.135,0.015-0.272,0.017-0.409 c0.553-39.818-22.001-80.879-58.861-107.162c-0.215-0.154-0.439-0.293-0.66-0.434v-23.173c21.484-3.742,37.878-22.573,37.878-45.186 c0-16.776-9.023-31.473-22.451-39.472c6.23-6.085,10.109-14.581,10.109-23.971C414.584,15.018,399.613,0,381.212,0 c-14.639,0-27.097,9.509-31.584,22.689h-19.118v-3.164c0-4.328-3.508-7.837-7.837-7.837c-4.329,0-7.837,3.509-7.837,7.837v25.783 c0,4.328,3.508,7.837,7.837,7.837c4.329,0,7.837-3.509,7.837-7.837v-6.945H348.2c1.089,7.432,4.619,14.077,9.747,19.088 c-13.43,8-22.454,22.696-22.454,39.473c0,22.613,16.394,41.444,37.882,45.186v23.172c-0.223,0.141-0.446,0.281-0.662,0.436 C335.85,192,313.296,233.062,313.852,272.88c0.002,0.136,0.007,0.272,0.017,0.406c0.085,2.288,0.594,11.427,1.733,16.766 c0.078,0.459,0.183,0.904,0.299,1.354c-23.496,33.976-36.58,72.907-36.047,111.091c0.034,1.608,0.857,18.01,2.697,26.494 c0.049,0.272,0.414,2.008,0.572,2.51C294.792,478.914,335.085,512,381.212,512c22.004,0,42.94-7.361,60.546-21.288 c17.447-13.801,30.032-32.789,36.396-54.911c0.504-1.753,0.975-3.554,1.399-5.352c0.991-4.192-1.627-8.406-5.813-9.425 c-4.202-1.02-8.426,1.561-9.448,5.768c-0.047,0.191-0.815,3.332-1.202,4.676c-11.158,38.794-44.063,64.859-81.878,64.859 c-38.973,0-73.076-28.304-82.934-68.832c-0.053-0.219-0.362-1.609-0.386-1.72c-1.479-6.68-2.322-21.49-2.37-23.557 c-0.438-31.571,9.384-63.794,27.286-92.818c11.795,21.686,33.853,35.722,58.402,35.722c24.597,0,46.598-14,58.384-35.67 c17.508,28.407,27.32,59.882,27.319,90.744C466.913,404.524,470.422,408.033,474.749,408.033z M381.212,15.673 c9.759,0,17.699,7.988,17.699,17.806s-7.94,17.806-17.699,17.806c-9.759,0-17.7-7.988-17.7-17.806S371.452,15.673,381.212,15.673z M351.167,96.923c0-15.76,12.076-28.733,27.412-30.078c0.869,0.068,4.396,0.068,5.265,0c15.335,1.346,27.408,14.318,27.408,30.078 c0,16.653-13.477,30.2-30.041,30.2C364.645,127.123,351.167,113.575,351.167,96.923z M329.526,272.562 c-0.001-0.048-0.003-0.097-0.005-0.145c-0.387-34.464,19.382-70.205,51.692-93.508c32.303,23.297,52.072,59.04,51.689,93.506 c-0.002,0.049-0.004,0.099-0.005,0.148c-0.007,0.262-0.022,0.621-0.042,1.049c-12.431-14.675-26.917-28.084-43.148-39.656 c-0.157-0.112-0.321-0.21-0.481-0.316v-12.122c0-4.328-3.508-7.837-7.837-7.837c-4.329,0-7.837,3.509-7.837,7.837v11.888 c-0.283,0.176-0.565,0.356-0.839,0.552c-16.246,11.583-30.726,24.971-43.147,39.612 C329.546,273.156,329.532,272.809,329.526,272.562z M381.212,329.448c-21.412,0-40.402-14.191-48.101-35.207 c11.299-15.143,24.899-29.117,40.442-41.314v25.016c0,4.328,3.508,7.837,7.837,7.837c4.329,0,7.837-3.509,7.837-7.837v-24.739 c15.377,12.125,28.851,26.026,40.074,41.085C421.593,315.3,402.665,329.448,381.212,329.448z"/> </g>
</svg>