<!DOCTYPE svg PUBLIC "-//W3C//DTD SVG 1.1//EN" "http://www.w3.org/Graphics/SVG/1.1/DTD/svg11.dtd">
<!-- Uploaded to: SVG Repo, www.svgrepo.com, Transformed by: SVG Repo Mixer Tools -->
<svg fill="#fff" height="800px" width="800px" version="1.1" id="Capa_1" xmlns="http://www.w3.org/2000/svg" xmlns:xlink="http://www.w3.org/1999/xlink" viewBox="0 0 426.949 426.949" xml:space="preserve" stroke="#fff">
<g id="SVGRepo_bgCarrier" stroke-width="0"/>
<g id="SVGRepo_tracerCarrier" stroke-linecap="round" stroke-linejoin="round"/>
<g id="SVGRepo_iconCarrier"> <g> <path d="M212.914,29.347c2.469,5.196,8.668,9.201,14.419,9.314l14.158,0.281c-0.822,3.595-1.271,7.33-1.271,11.17 c0,27.633,22.48,50.114,50.113,50.114s50.113-22.481,50.113-50.114C340.448,22.48,317.967,0,290.335,0 c-9.826,0-18.993,2.854-26.737,7.76l-46.104-0.106c-3.58,0-6.595,1.523-8.273,4.178c-1.679,2.657-1.76,6.037-0.222,9.274 L212.914,29.347z"/> <path d="M192.883,267.478H44.125c-8.271,0-15,6.729-15,15v129.472c0,8.271,6.729,15,15,15h148.759c8.271,0,15-6.729,15-15V282.478 C207.883,274.207,201.154,267.478,192.883,267.478z M133.362,357.14v43.667h-29.719v-43.665h-16.22l31.082-35.049l31.08,35.047 H133.362z"/> <path d="M394.372,178.833l-38.36-53.447c-4.178-5.82-10.379-10.208-19.894-10.208h-0.01H129.514c-8.271,0-15,6.729-15,15v8.667 c0,8.271,6.729,15,15,15h108.051v255.105c0,9.925,8.075,18,18,18h12.31c9.925,0,18-8.075,18-18V284.003h8.925v124.946 c0,9.925,8.075,18,18,18h12.309c9.925,0,18-8.075,18-18V262.176v-3.968h2.188c7.254,0,15.689-4.598,19.622-10.694l30.005-46.527 C398.996,194.67,398.753,184.939,394.372,178.833z M343.108,165.743l15.81,22.688c1.94,2.786,1.921,7.845-0.042,10.615 L343.108,221.3V165.743z"/> </g> </g>
</svg>