<!DOCTYPE svg PUBLIC "-//W3C//DTD SVG 1.1//EN" "http://www.w3.org/Graphics/SVG/1.1/DTD/svg11.dtd">
<!-- Uploaded to: SVG Repo, www.svgrepo.com, Transformed by: SVG Repo Mixer Tools -->
<svg fill="#fff" height="800px" width="800px" version="1.1" id="Layer_1" xmlns="http://www.w3.org/2000/svg" xmlns:xlink="http://www.w3.org/1999/xlink" viewBox="0 0 512 512" xml:space="preserve" stroke="#fff">
<g id="SVGRepo_bgCarrier" stroke-width="0"/>
<g id="SVGRepo_tracerCarrier" stroke-linecap="round" stroke-linejoin="round"/>
<g id="SVGRepo_iconCarrier"> <g> <g> <path d="M492.345,14.732c-19.66-19.637-51.455-19.651-71.1,0.006L19.654,416.323c-19.646,19.635-19.669,51.455,0,71.111 c19.633,19.643,51.455,19.656,71.1,0l47.524-47.523c2.441,17.395,10.239,34.174,23.587,47.523 c32.734,32.734,85.759,32.775,118.51,0c29.616-29.606,32.174-75.165,9.105-107.62c19.665-21.168,38.334-50.733,49.512-78.914 c6.547-16.509,10.191-31.355,10.944-44.291c37.82,5.836,76.646-14.527,104.173-42.054c3.14-3.139,6.179-6.378,8.982-9.667v235.302 c0,9.242-7.64,16.76-16.883,16.76c-9.232,0-16.749-7.519-16.749-16.76v-33.52c0.001-9.257-7.506-16.759-16.759-16.759 c-9.253,0-16.648,7.502-16.648,16.76v33.52c0,27.726,22.443,50.281,50.158,50.281c27.726,0,50.292-22.555,50.292-50.281V80.794 C512.706,59.778,509.512,31.899,492.345,14.732z M278.98,204.404l23.7,23.705l-99.042,99.042l-23.7-23.705L278.98,204.404z M256.676,463.734c-19.603,19.614-51.404,19.684-71.111,0c-15.522-15.526-18.545-38.689-9.48-57.425l36.17,34.789 c6.683,6.425,17.3,6.197,23.7-0.458c6.416-6.673,6.209-17.284-0.458-23.7l-35.561-34.203c20.034-9.354,42.236-4.626,56.74,9.886 C276.323,412.257,276.345,444.078,256.676,463.734z M307.829,288.543c-9.564,24.137-26.034,50.271-42.787,68.338 c-9.779-6.05-20.672-9.982-32.146-11.589l82.533-82.531C314.173,270.004,311.769,278.61,307.829,288.543z M430.41,190.857 c-28.274,28.266-56.866,35.459-75.544,32.469l107.801-107.799C466.726,140.966,450.174,171.091,430.41,190.857z"/> </g> </g> </g>
</svg>