<svg width="52" height="52" viewBox="0 0 52 52" fill="none" xmlns="http://www.w3.org/2000/svg">
<path d="M26.0029 0.00195312V5.8893C37.0918 5.8893 46.1141 14.9131 46.1141 26.0034C46.1141 37.0937 37.0918 46.1175 26.0029 46.1175C15.912 46.1175 7.53286 38.648 6.10224 28.9471H13.8147C15.1423 34.4488 20.0965 38.5508 26 38.5508H28.9437V33.9867H37.289V28.0993H28.9437V23.8987H37.289V18.0113H28.9437V13.4487H26C20.095 13.4487 15.1423 17.5507 13.8147 23.0524H0V25.9961C0 40.3318 11.6643 51.9975 26.0015 51.9975C40.3372 51.9975 52 40.3318 52 25.9961C52 11.6633 40.3386 0.00195312 26.0029 0.00195312Z" fill="white"/>
</svg>