<svg width="52" height="52" viewBox="0 0 52 52" fill="none" xmlns="http://www.w3.org/2000/svg">
<path d="M25.66 19.0939C26.1492 19.2858 26.6291 18.8162 26.4669 18.3165C25.354 14.8869 21.3244 13.6075 17.5784 16.6503C15.6079 18.251 14.8675 18.5911 14.8488 18.5997C16.1478 19.8985 17.6319 24.2567 20.8706 24.7387C24.4383 25.3856 27.5959 21.8755 25.0125 20.2694C23.3135 19.2131 21.3131 18.5996 19.1689 18.5996C21.4168 18.0929 23.6609 18.3102 25.66 19.0939Z" fill="white"/>
<path d="M41.8151 16.6488C35.3488 11.3964 31.225 19.6795 33.7884 18.8584C35.6089 18.2753 37.5992 18.1482 39.5956 18.5982C36.2131 18.5982 33.095 20.1484 31.0161 22.6716C31.1869 18.7063 31.4451 16.2243 31.7445 14.378C33.4724 14.3186 35.7753 12.9233 37.0399 10.4818C39.2202 6.57989 38.2091 2.57916 37.8838 0.0546875C36.1801 1.71366 28.7381 -0.230218 25.7879 4.82522C24.4848 7.05841 24.8635 9.77591 26.2344 11.7646C26.6684 12.3941 27.7061 12.092 27.7356 11.328C27.8644 8.00453 29.5185 5.49352 32.6021 4.10275C31.2184 5.89559 30.3099 7.9028 29.8405 9.97741C29.111 13.2092 28.349 15.3291 28.0692 25.6297C28.0407 26.6743 28.887 27.539 29.9319 27.5259C30.6884 27.5163 31.3364 27.0363 31.6273 26.338C32.0698 25.2759 32.7899 24.1766 33.9618 23.1695C35.0754 24.4004 36.77 25.0553 38.5234 24.7374C41.7483 24.2575 43.2533 19.8897 44.545 18.5981C44.5261 18.5898 43.7856 18.2496 41.8151 16.6488Z" fill="white"/>
<path d="M51.3207 29.4835C49.2992 28.112 47.0991 29.0893 46.0887 29.6727L33.409 38.953L25.9848 38.9546L24.1287 37.0985H30.947C32.9976 37.0985 35.2941 35.7629 35.2941 33.3856C35.2941 30.8617 32.9976 29.6727 30.947 29.6727H28.3919C26.4938 29.6727 24.2757 29.8419 22.7118 29.0047C21.2259 28.2486 19.5148 27.8184 17.6883 27.8184C14.6213 27.8184 11.8763 29.041 9.99533 30.9692L0 40.809L11.1363 51.9454L14.8485 46.3772H32.3901C34.2608 46.3772 36.0667 45.6909 37.4652 44.4485L51.4476 32.0274C52.2249 31.337 52.1811 30.0673 51.3207 29.4835Z" fill="white"/>
</svg>