<svg width="52" height="52" viewBox="0 0 52 52" fill="none" xmlns="http://www.w3.org/2000/svg">
<g clip-path="url(#clip0)">
<path d="M8.83266 36.191L14.0828 28.1407H11.9679V23.2615L15.8349 16.1223H15.103V11.2137L18.9798 4.35505L16.2985 0H12.6324L5.75783 12.1629V15.0542H7.29846L2.87886 23.2133V26.0899H5.90322L0 35.1417V38.0853H8.83266V36.191Z" fill="white"/>
<path d="M41.2941 44.3047V41.2034H35.1765V43.0948C33.6426 42.9147 32.0946 42.8227 30.5398 42.8227H29.0588V38.1146L40.1085 38.1446V37.0995L32.2704 25.0811H36.9732V24.036L31.0293 13.0626H33.8379V12.0175L27.062 0.0292969H24.938L18.1619 12.0177V13.0628H20.9705L15.0266 24.0362V25.0813H19.7294L11.8913 37.0997V38.1448L22.9412 38.1147V42.8228H21.4602C19.9054 42.8228 18.3574 42.9148 16.8235 43.0949V41.2035H10.7059V44.3049C7.21444 45.286 3.85738 46.7452 0.731875 48.6551L0 49.1023V51.9993H52V49.1023L51.268 48.655C48.1426 46.7451 44.7856 45.2859 41.2941 44.3047Z" fill="white"/>
<path d="M46.0968 26.0899H49.1211V23.2133L44.7015 15.0542H46.2422V12.1629L39.3675 0H35.6741L33.0858 4.47088L36.8969 11.2137V16.1223H36.1651L40.0321 23.2615V28.1407H37.9172L43.1673 36.191V38.0853H52V35.1417L46.0968 26.0899Z" fill="white"/>
</g>
<defs>
<clipPath id="clip0">
<rect width="52" height="52" fill="white"/>
</clipPath>
</defs>
</svg>