<svg width="52" height="52" viewBox="0 0 52 52" fill="none" xmlns="http://www.w3.org/2000/svg">
<g clip-path="url(#clip0)">
<path d="M51.9908 24.1102C51.828 22.2207 51.0261 20.1714 49.8862 18.0945C48.6542 15.8516 42.6231 7.9003 41.4894 6.40098C39.7996 4.17044 38.6874 2.44069 38.9916 1.59578C39.4432 0.339181 34.4444 0.901426 28.9818 1.85694C26.871 2.22869 22.9077 1.1718 23.6604 3.97995C24.407 6.7881 15.9518 4.54834 15.9518 4.54834C15.9518 4.54834 6.41514 7.42716 8.14489 9.15691C9.20486 10.2199 -0.0860126 21.5048 1.40102e-05 24.1071C0.236587 31.2104 5.03871 41.1557 5.21077 39.0419C5.38282 36.9281 10.4307 44.1083 12.9992 46.6215C15.9334 49.488 30.7576 48.8766 30.4934 50.634C30.2291 52.3914 40.9948 49.1285 38.9946 46.6215C36.7364 43.7888 46.6756 37.5057 45.1271 35.564C43.5786 33.6223 52.3134 27.9414 51.9908 24.1102ZM9.11269 32.1076C8.29236 32.1076 7.62566 31.4409 7.62566 30.6205C7.62566 29.8002 8.29236 29.1335 9.11269 29.1335C9.93609 29.1335 10.5997 29.8033 10.5997 30.6205C10.5997 31.4439 9.93609 32.1076 9.11269 32.1076ZM21.141 29.3639C19.7738 29.3639 18.6616 28.2579 18.6616 26.8845C18.6616 25.5173 19.7738 24.4082 21.141 24.4082C22.5083 24.4082 23.6174 25.5173 23.6174 26.8845C23.6174 28.2548 22.5083 29.3639 21.141 29.3639ZM17.9857 19.3971C16.3481 21.3573 14.0101 22.0978 12.7596 21.0562C11.5091 20.0116 11.8225 17.5783 13.457 15.6181C15.0946 13.6579 17.4358 12.9114 18.6862 13.956C19.9367 15.0006 19.6233 17.437 17.9857 19.3971ZM29.6792 44.563C27.2704 44.563 25.3164 42.609 25.3164 40.2002C25.3164 37.7945 27.2704 35.8374 29.6792 35.8374C32.0879 35.8374 34.042 37.7945 34.042 40.2002C34.042 42.609 32.091 44.563 29.6792 44.563ZM42.153 23.1854C43.1546 23.1854 43.9688 23.9996 43.9688 25.0012C43.9688 26.0058 43.1546 26.82 42.153 26.82C41.1514 26.82 40.3342 26.0028 40.3342 25.0012C40.3342 23.9996 41.1514 23.1854 42.153 23.1854ZM31.6824 16.6443C31.6824 14.8039 33.6333 13.3108 36.0452 13.3108C38.4478 13.3108 40.4049 14.8039 40.4049 16.6443C40.4049 18.4846 38.4478 19.9748 36.0452 19.9748C33.6333 19.9778 31.6824 18.4846 31.6824 16.6443Z" fill="white"/>
</g>
<defs>
<clipPath id="clip0">
<rect width="52" height="52" fill="white"/>
</clipPath>
</defs>
</svg>