<svg width="52" height="52" viewBox="0 0 52 52" fill="none" xmlns="http://www.w3.org/2000/svg">
<g clip-path="url(#clip0)">
<path d="M39.1845 0.175781H3.08553C1.38145 0.175781 0 1.55723 0 3.26131C0 4.96551 1.38145 6.34683 3.08553 6.34683L9.62598 6.35412C10.5801 6.35412 11.3539 7.12772 11.3539 8.08201C11.3539 9.0363 10.5801 9.8099 9.62598 9.8099H4.15003V22.9145H3.08553C1.38145 22.9145 0 24.2957 0 26C0 27.7041 1.38145 29.0856 3.08553 29.0856L9.62598 29.0944C10.5801 29.0944 11.3539 29.868 11.3539 30.8223C11.3539 31.7766 10.5801 32.5502 9.62598 32.5502H4.15003V45.6529H3.08553C1.38145 45.6529 0 47.0343 0 48.7384C0 50.4425 1.38145 51.8239 3.08553 51.8239H30.2652C26.8936 49.0677 24.7372 44.8777 24.7372 40.1932C24.7372 36.7358 26.8871 32.1552 31.3103 26.189C34.3618 22.0729 37.3715 18.8343 37.4983 18.6986L38.1201 18.0316V6.34683H39.1846C40.8887 6.34683 42.2701 4.96551 42.2701 3.26131C42.27 1.55723 40.8885 0.175781 39.1845 0.175781Z" fill="white"/>
<path d="M46.4379 28.7048C43.736 25.0604 40.9955 22.1119 40.9683 22.0825C40.8285 21.9327 40.6328 21.8477 40.428 21.8477C40.2232 21.8477 40.0275 21.9327 39.8878 22.0825C39.8603 22.1119 37.1197 25.0604 34.4182 28.7048C30.7276 33.6829 28.8566 37.5471 28.8566 40.1903C28.8566 46.571 34.0477 51.7625 40.4283 51.7625C46.8089 51.7625 52.0002 46.5711 52.0002 40.1903C51.9998 37.5468 50.1284 33.6829 46.4379 28.7048ZM41.5836 48.0175C40.9771 48.1609 40.352 48.2335 39.7253 48.2335C35.2722 48.2335 31.6492 44.6106 31.6492 40.1574C31.6492 39.5433 31.8382 38.4313 32.7385 36.6186C32.829 36.4363 33.0376 36.3459 33.2325 36.4039C33.4272 36.4619 33.5524 36.6519 33.5283 36.8539C33.5076 37.0284 33.4972 37.1926 33.4972 37.3421C33.4972 42.1153 36.892 46.2615 41.5693 47.2006C41.7621 47.2391 41.9017 47.4069 41.9051 47.6034C41.9088 47.8001 41.7749 47.9722 41.5836 48.0175Z" fill="white"/>
</g>
<defs>
<clipPath id="clip0">
<rect width="52" height="52" fill="white"/>
</clipPath>
</defs>
</svg>