<svg width="52" height="52" viewBox="0 0 52 52" fill="none" xmlns="http://www.w3.org/2000/svg">
<g clip-path="url(#clip0)">
<path d="M48.0805 23.2901L44.4336 11.1338C43.6021 8.36145 41.0995 6.5 38.2065 6.5H35.75V3.25C35.75 1.455 34.295 0 32.5 0H19.5C17.705 0 16.25 1.455 16.25 3.25V6.5H13.7935C10.9005 6.5 8.39793 8.36145 7.56639 11.1338L3.91947 23.2901C1.61666 24.2909 0 26.5826 0 29.25V42.25C0 44.0448 1.4552 45.5 3.25 45.5H3.2502L3.25 48.7498C3.25 50.5448 4.705 52 6.5 52H9.7502C11.545 52 13.0002 50.5448 13.0002 48.75L12.9988 45.5H39L38.9998 48.7498C38.9998 50.5448 40.4548 52 42.2498 52H45.5C47.295 52 48.75 50.5448 48.75 48.75V45.5002L48.7488 45.5H48.75C50.5448 45.5 52 44.0448 52 42.25V29.25C52 26.5826 50.3833 24.2909 48.0805 23.2901L48.0805 23.2901ZM13.7934 13H38.2064L41.1315 22.75H10.8683L13.7933 13H13.7934ZM12.9999 37.375C11.2049 37.375 9.74989 35.9198 9.74989 34.125C9.74989 32.33 11.2049 30.875 12.9999 30.875C14.7949 30.875 16.2499 32.33 16.2499 34.125C16.2499 35.9198 14.7949 37.375 12.9999 37.375ZM38.9999 37.375C37.2049 37.375 35.7499 35.9198 35.7499 34.125C35.7499 32.33 37.2049 30.875 38.9999 30.875C40.7949 30.875 42.2499 32.33 42.2499 34.125C42.2499 35.9198 40.7949 37.375 38.9999 37.375Z" fill="white"/>
</g>
<defs>
<clipPath id="clip0">
<rect width="52" height="52" fill="white"/>
</clipPath>
</defs>
</svg>