<svg width="52" height="52" viewBox="0 0 52 52" fill="none" xmlns="http://www.w3.org/2000/svg">
<g clip-path="url(#clip0)">
<path d="M45.9947 42.5023V34.4837C45.9947 32.7608 44.598 31.3641 42.8751 31.3641H42.0596V2.09001C42.0596 1.82814 41.9282 1.58377 41.7098 1.43941L39.7296 0.130578C39.2111 -0.212095 38.5198 0.159637 38.5198 0.781173V10.183L37.9297 8.5912C37.1361 6.45036 35.0941 5.02954 32.8108 5.02954H19.1773C16.8806 5.02954 14.8296 6.46685 14.0458 8.62561L13.4803 10.183V0.781173C13.4803 0.159722 12.789 -0.212095 12.2704 0.130578L10.2902 1.43933C10.0717 1.58369 9.94026 1.82806 9.94026 2.08992V31.3641H9.12483C7.40194 31.3641 6.00525 32.7607 6.00525 34.4837V42.5023H4.67619C4.24549 42.5023 3.89636 42.8514 3.89636 43.2822V47.5937C3.89636 48.0244 4.24549 48.3736 4.67619 48.3736H8.04073V50.4402C8.04073 51.3016 8.73907 51.9999 9.60056 51.9999H13.7338C14.5953 51.9999 15.2936 51.3016 15.2936 50.4402V48.3736H36.7066V50.4402C36.7066 51.3016 37.405 51.9999 38.2663 51.9999H42.3996C43.2611 51.9999 43.9594 51.3016 43.9594 50.4402V48.3736H47.3239C47.7547 48.3736 48.1038 48.0244 48.1038 47.5937V43.2823C48.1038 42.8515 47.7547 42.5023 47.3239 42.5023L45.9947 42.5023ZM14.5136 14.5273H37.4864V22.2117H14.5136V14.5273ZM13.9794 40.3198H11.3151C10.501 40.3198 9.8411 39.6598 9.8411 38.8457V38.8085C9.8411 37.9944 10.501 37.3345 11.3151 37.3345H13.9793C14.7934 37.3345 15.4534 37.9944 15.4534 38.8085V38.8457C15.4534 39.6598 14.7935 40.3198 13.9794 40.3198ZM31.3018 40.7544H20.6982C19.8367 40.7544 19.1384 40.056 19.1384 39.1946V29.3117C19.1384 28.4503 19.8367 27.7519 20.6982 27.7519H31.3018C32.1632 27.7519 32.8616 28.4504 32.8616 29.3117V39.1946C32.8616 40.056 32.1632 40.7544 31.3018 40.7544ZM40.6848 40.3198H38.0206C37.2066 40.3198 36.5466 39.6598 36.5466 38.8457V38.8085C36.5466 37.9944 37.2066 37.3345 38.0206 37.3345H40.6848C41.4989 37.3345 42.1589 37.9944 42.1589 38.8085V38.8457C42.1589 39.6598 41.4989 40.3198 40.6848 40.3198ZM31.0647 33.4602H20.9104C20.4839 33.4602 20.1383 33.1146 20.1383 32.688V32.6724C20.1383 32.2459 20.4839 31.9004 20.9104 31.9004H31.0647C31.4911 31.9004 31.8368 32.2459 31.8368 32.6724V32.688C31.8368 33.1146 31.4911 33.4602 31.0647 33.4602ZM31.0647 30.3405H20.9104C20.4839 30.3405 20.1383 29.9949 20.1383 29.5684V29.5528C20.1383 29.1264 20.4839 28.7808 20.9104 28.7808H31.0647C31.4911 28.7808 31.8368 29.1264 31.8368 29.5528V29.5684C31.8368 29.9949 31.4911 30.3405 31.0647 30.3405ZM31.0647 39.6994H20.9104C20.4839 39.6994 20.1383 39.3538 20.1383 38.9273V38.9117C20.1383 38.4853 20.4839 38.1396 20.9104 38.1396H31.0647C31.4911 38.1396 31.8368 38.4853 31.8368 38.9117V38.9273C31.8368 39.3538 31.4911 39.6994 31.0647 39.6994ZM31.0647 36.5798H20.9104C20.4839 36.5798 20.1383 36.2341 20.1383 35.8078V35.7921C20.1383 35.3657 20.4839 35.02 20.9104 35.02H31.0647C31.4911 35.02 31.8368 35.3657 31.8368 35.7921V35.8078C31.8368 36.2341 31.4911 36.5798 31.0647 36.5798Z" fill="white"/>
</g>
<defs>
<clipPath id="clip0">
<rect width="52" height="52" fill="white"/>
</clipPath>
</defs>
</svg>