<svg xmlns="http://www.w3.org/2000/svg" xmlns:xlink="http://www.w3.org/1999/xlink" version="1.1" x="0px" y="0px" viewBox="0 0 50 62.5" enable-background="new 0 0 50 50" xml:space="preserve"><g><path d="M48.5,4.1l-1,1l-2.6-2.6l1-1c0.3-0.3,0.3-0.8,0-1.1c-0.3-0.3-0.8-0.3-1.1,0l-1,1c-0.7-0.6-1.8-0.6-2.5,0l-1.1,1.1   c-0.7-0.2-1.4-0.1-1.9,0.4L3,38.3c-0.3,0.3-0.5,0.8-0.5,1.3c0,0.2,0,0.4,0.1,0.6l-1.1,1.1c-0.7,0.7-0.7,1.8,0,2.5l-1,1   c-0.3,0.3-0.3,0.8,0,1.1s0.8,0.3,1.1,0l1-1l2.6,2.6l-1,1c-0.3,0.3-0.3,0.8,0,1.1c0.3,0.3,0.8,0.3,1.1,0l1-1C6.5,48.8,7,49,7.4,49   c0.5,0,0.9-0.2,1.2-0.5l1.1-1.1c0.2,0.1,0.4,0.1,0.6,0.1c0.5,0,0.9-0.2,1.3-0.5L47,11.7c0.5-0.5,0.7-1.2,0.4-1.9l1.1-1.1   c0.7-0.7,0.7-1.8,0-2.5l1-1c0.3-0.3,0.3-0.8,0-1.1C49.2,3.9,48.8,3.9,48.5,4.1z M7.6,47.5c-0.1,0.1-0.2,0.1-0.4,0l-4.2-4.2   c0,0,0,0,0,0c0,0,0,0,0,0l-0.5-0.5c-0.1-0.1-0.1-0.3,0-0.4l1-1l5.1,5.1L7.6,47.5z M45.9,10.7L10.7,45.9c-0.2,0.2-0.3,0.2-0.5,0   l-4.1-4.1l5.5-5.5c0.3-0.3,0.3-0.8,0-1.1c-0.3-0.3-0.8-0.3-1.1,0l-5.5,5.5l-1-1C4,39.7,4,39.6,4,39.6c0-0.1,0-0.1,0.1-0.2L39.3,4.1   c0.1-0.1,0.3-0.1,0.5,0l4,4l-6.5,6.5c-0.3,0.3-0.3,0.8,0,1.1c0.3,0.3,0.8,0.3,1.1,0l6.5-6.5l1,1C46,10.3,46,10.5,45.9,10.7z    M47.5,7.6l-1,1l-5.1-5.1l1-1c0.1-0.1,0.2-0.1,0.4,0l0.5,0.5c0,0,0,0,0,0l4.2,4.2C47.5,7.3,47.5,7.5,47.5,7.6z"/><path d="M15,15c0.3-0.3,0.3-0.8,0-1.1L12,11c-0.3-0.3-0.8-0.3-1.1,0c-0.3,0.3-0.3,0.8,0,1.1l2.9,2.9C14.2,15.3,14.7,15.3,15,15z"/><path d="M8.6,15.5c-0.4-0.2-0.8,0-1,0.4c-0.2,0.4,0,0.8,0.4,1l3.8,1.6c0.4,0.2,0.8,0,1-0.4c0.2-0.4,0-0.8-0.4-1L8.6,15.5z"/><path d="M16,7.6c-0.4,0.2-0.6,0.6-0.4,1l1.6,3.8c0.2,0.4,0.6,0.6,1,0.4c0.4-0.2,0.6-0.6,0.4-1L17,8C16.8,7.6,16.4,7.4,16,7.6z"/><path d="M35,35c-0.3,0.3-0.3,0.8,0,1.1L38,39c0.3,0.3,0.8,0.3,1.1,0c0.3-0.3,0.3-0.8,0-1.1L36.1,35C35.8,34.7,35.3,34.7,35,35z"/><path d="M41.4,34.5c0.4,0.2,0.8,0,1-0.4c0.2-0.4,0-0.8-0.4-1l-3.8-1.6c-0.4-0.2-0.8,0-1,0.4c-0.2,0.4,0,0.8,0.4,1L41.4,34.5z"/><path d="M34,42.4c0.4-0.2,0.6-0.6,0.4-1l-1.6-3.8c-0.2-0.4-0.6-0.6-1-0.4c-0.4,0.2-0.6,0.6-0.4,1L33,42   C33.2,42.4,33.6,42.6,34,42.4z"/></g><text x="0" y="65" fill="#000000" font-size="5px" font-weight="bold" font-family="'Helvetica Neue', Helvetica, Arial-Unicode, Arial, Sans-serif">Created by Vectors Market</text><text x="0" y="70" fill="#a1c9ff" font-size="5px" font-weight="bold" font-family="'Helvetica Neue', Helvetica, Arial-Unicode, Arial, Sans-serif">from the Noun Project</text></svg>