<svg id="Capa_1" data-name="Capa 1" xmlns="http://www.w3.org/2000/svg" viewBox="0 0 512 512"><defs><style>.cls-1{fill:#6b6d75;}.cls-2{fill:#fff;}</style></defs><title>s3-i5</title><path class="cls-1" d="M509.31,103.12A231.12,231.12,0,0,0,316.62,0H291.34A230.72,230.72,0,0,0,159.52,41.17L0,151.62V160a64,64,0,0,0,64,64,121.19,121.19,0,0,0,67.5-20.43l109.76-73.19a204.83,204.83,0,0,1,219-5.2L512,156.26V107.2ZM354.85,64A236.12,236.12,0,0,0,223.5,103.76L113.74,176.94A89.31,89.31,0,0,1,64,192a32,32,0,0,1-31.06-24.27L177.73,67.49A198.79,198.79,0,0,1,291.34,32h25.28a199.17,199.17,0,0,1,135.3,52.8A236.91,236.91,0,0,0,354.85,64Z"/><path class="cls-2" d="M459,254.51l-16.14,27.63a237,237,0,0,1,24.94,16.56l19.62-25.28A267,267,0,0,0,459,254.51Z"/><path class="cls-2" d="M398,226.59l-10.46,30.26c9.6,3.33,19.2,7.13,28.27,11.31l13.31-29.1C419.06,234.45,408.59,230.27,398,226.59Z"/><path class="cls-2" d="M256,272a283.11,283.11,0,0,0-114.8,26.16A243,243,0,0,1,288,240a301.6,301.6,0,0,1,62.9,6.66l6.67-31.32A334.74,334.74,0,0,0,288,208C143.14,208,34.48,360,19.55,381.86L8.19,393.65l13.92,10.93C27.68,409,160.22,512,288,512c132.14,0,203.38-141.58,206.4-147.62L500.45,352l-11.35-7.84A450.77,450.77,0,0,0,256,272Zm0,32c10.62,0,21,.59,31.28,1.6a24,24,0,0,1-46.82-1C245.6,304.24,250.78,304,256,304Zm-47.06,5.28a55.84,55.84,0,0,0,110,.82A402,402,0,0,1,359.6,320a96,96,0,0,1-191.12,1.6A270.84,270.84,0,0,1,208.94,309.28ZM288,480c-93,0-193.46-63.38-230.91-89.52a409.63,409.63,0,0,1,81.12-55.3,127.85,127.85,0,0,0,252.3-4.8,459.15,459.15,0,0,1,68.07,32.4C439,395.41,379.2,480,288,480Z"/></svg>