<svg id="Capa_1" data-name="Capa 1" xmlns="http://www.w3.org/2000/svg" viewBox="0 0 512 512"><defs><style>.cls-1{fill:#fff;}</style></defs><title>s3-i1</title><path class="cls-1" d="M52.46,269.3c0,79.75,54.39,112.21,94.1,135.94a116.67,116.67,0,0,1,45.09,36.32A23.2,23.2,0,0,1,193.77,452a94.66,94.66,0,0,1-14.85,42L206.1,512a123.47,123.47,0,0,0,20.33-60.07,55.25,55.25,0,0,0-5.57-25c-11-21.9-33.58-35.4-57.53-49.69-38.51-23-78.26-46.73-78.26-108,0-13.81,42.59-53.58,73.68-82.6,19.71-18.42,40.11-37.47,59.24-57.32a640.28,640.28,0,0,0,84.9-113.22L274.55,0a618.24,618.24,0,0,1-80.06,106.75c-18.5,19.2-38.58,37.95-58,56.08C82.82,212.94,52.46,242.6,52.46,269.3Z"/><path class="cls-1" d="M333.26,358.75c-31-19.17-66.16-40.89-105.6-40.89v32.61c30.18,0,59.8,18.24,88.48,36,25.93,16,50.42,31.15,74.48,31.15a51.3,51.3,0,0,0,22.27-4.89,77.33,77.33,0,0,0,46.57-74.51,155,155,0,0,0-15.21-62.56l-29.09,14.67a122.9,122.9,0,0,1,11.66,47.83,45.65,45.65,0,0,1-27.85,45C384.36,390.19,359.72,375,333.26,358.75Z"/></svg>