<svg id="Capa_1" data-name="Capa 1" xmlns="http://www.w3.org/2000/svg" viewBox="0 0 512 512"><defs><style>.cls-1{fill:#6b6d75;}.cls-2{fill:#fff;}</style></defs><title>s3-i6</title><path class="cls-1" d="M384.67,235.18V368.07l57.72,20.48L431.61,419l-79.24-28.1V260.77c-13,9.27-26.16,17.85-38.87,25.42a113.4,113.4,0,0,1-116,0c-12.7-7.57-26-16.1-38.86-25.42v130.1L79.36,419,68.57,388.55l57.73-20.48V235.18l-1.14-1c-35.72-31.92-63.45-70.4-63.45-113V0H94V121.11c0,31.69,23,62.17,51.16,87.59,1.09,1,2.18,2,3.29,2.92q5,4.4,10.15,8.56c4.77,3.87,9.61,7.59,14.43,11.14,14.48,10.67,28.84,19.84,41,27.05a81,81,0,0,0,83,0,471.9,471.9,0,0,0,55.4-38.19q4.17-3.37,8.26-6.91C391.08,187,417,154.73,417,121.11V0h32.3V121.11c0,43.08-28.3,81.91-64.54,114Z"/><rect class="cls-1" x="466.59" y="403.82" width="32.29" height="32.29" transform="matrix(0.33, -0.94, 0.94, 0.33, -74.5, 734.43)"/><polygon class="cls-1" points="48.92 429.76 19.46 440.21 8.65 409.78 38.11 399.32 48.92 429.76"/><polygon class="cls-1" points="433.11 452.14 433.11 484.44 342.91 484.44 315.34 512 292.51 489.17 329.54 452.14 433.11 452.14"/><polygon class="cls-1" points="218.46 489.17 195.62 512 168.06 484.44 77.86 484.44 77.86 452.14 181.43 452.14 218.46 489.17"/><path class="cls-2" d="M352.37,220.18v40.59c-13,9.27-26.16,17.85-38.87,25.42a113.4,113.4,0,0,1-116,0c-12.7-7.57-26-16.1-38.86-25.42V220.18c4.77,3.87,9.61,7.59,14.43,11.14,14.48,10.67,28.84,19.84,41,27.05a81,81,0,0,0,83,0A471.9,471.9,0,0,0,352.37,220.18Z"/></svg>