<svg id="Capa_1" data-name="Capa 1" xmlns="http://www.w3.org/2000/svg" viewBox="0 0 512 512"><defs><style>.cls-1{fill:#fff;}</style></defs><title>s3-i7</title><path class="cls-1" d="M64,198.62l43.41,43.46L80,283.2V288a89.32,89.32,0,0,0,83,89.38l29,46.24V512h32V414.4l-25.84-41.23c2.38-.79,4.75-1.62,7.09-2.63L448,266.54V213.26L176.43,102.16c-2.22-.94-4.69-1.39-7-2.11A205.79,205.79,0,0,0,192,6.4V0H160V6.4a173.76,173.76,0,0,1-25.6,90.78A81.4,81.4,0,0,0,64,177.6Zm48.18,94L136.56,256H391.39L192.64,341.15a57,57,0,0,1-54.64-4.8v-.05A56.82,56.82,0,0,1,112.18,292.59ZM96,185.38V177.6a49.59,49.59,0,0,1,68.3-45.92L389.78,224H134.62L96,185.38Z"/></svg>