<svg id="Capa_1" data-name="Capa 1" xmlns="http://www.w3.org/2000/svg" viewBox="0 0 512 512"><defs><style>.cls-1{fill:#171a1a;}</style></defs><title>sex-woman</title><path class="cls-1" d="M452.09,491c-23.83-49.51-66.74-88.4-118.74-108V351.66c25.57-1.41,73.78-7.91,102.06-36.83a14.77,14.77,0,0,0,3.68-14,14.58,14.58,0,0,0-10.18-10.29c-.44-.11-37.71-12.89-30.23-89.16,3.25-32.5,2.71-61.75-1.52-86.89-4.87-28.82-14.62-51.46-28.81-67.28-15.39-17-35.43-25.67-59.59-25.67h-2.82C296.73,13.54,276.58,0,245.71,0c-14.41,0-29.47,2.93-44.85,8.88l-.65.22c-12.14,4.55-34.67,13.11-53.74,38.46C124.26,77,113.65,120.69,115,177.24s-8,84.39-16,97.72C92.3,285.9,86,288.07,84.39,288.5c-5.52-.43-10,2.38-12.78,7.15S69.77,306.7,73,311.47c1.3,1.95,8.88,12.13,27.19,22,20.91,11.27,47,17.66,77.9,19v29.79A217.76,217.76,0,0,0,59.91,491.09,14.56,14.56,0,0,0,73,512H439a14.59,14.59,0,0,0,12.35-6.83A15,15,0,0,0,452.09,491ZM97.94,482.64a187.55,187.55,0,0,1,99.12-76.27,14.63,14.63,0,0,0,10.19-13.87V338a14.61,14.61,0,0,0-14.74-14.62c-42.14.43-67.6-9.21-81.46-17.45,1-1,2-1.95,3.14-3,21.34-22.21,31.41-64.68,30-126.32C141.38,62.73,189.81,44.31,210.39,36.51l.65-.22c12.13-4.55,23.73-6.93,34.45-6.93,27.95,0,42.25,15.38,43.44,16.79a14.25,14.25,0,0,0,12.57,5.2c2.38-.21,4.77-.32,7-.32,15.71,0,28.17,5.2,37.92,16,20.59,22.75,29,70.74,23,131.63-6.07,61.43,13.11,92.19,29.68,107.14-22.31,12.36-54.06,17-78,17h-2.17A14.89,14.89,0,0,0,308.33,327a14.57,14.57,0,0,0-4.45,10.51v56a14.54,14.54,0,0,0,10.19,13.87,189.26,189.26,0,0,1,99.67,75.51H97.94Z"/></svg>