<?xml version="1.0" encoding="UTF-8"?>
<svg xmlns="http://www.w3.org/2000/svg" xmlns:xlink="http://www.w3.org/1999/xlink" width="6042px" height="6042px" viewBox="0 0 6042 6042" version="1.1">
<g id="surface1">
<path style=" stroke:none;fill-rule:evenodd;fill:rgb(89.411765%,80%,1.568627%);fill-opacity:1;" d="M 2186.101562 1845.835938 L 2204.042969 1860.941406 L 3214.136719 1860.941406 C 4132.398438 1860.941406 4223.363281 1860.074219 4214.726562 1851.441406 C 4209.503906 1846.226562 4205.226562 1839.429688 4205.226562 1836.332031 C 4205.226562 1832.902344 3809.457031 1830.726562 3186.683594 1830.726562 L 2168.152344 1830.726562 L 2186.101562 1845.835938 M 2228.519531 1882.726562 C 2232.117188 1889.742188 2241.582031 1899.753906 2249.558594 1904.976562 C 2257.53125 1910.210938 2268.175781 1918.625 2273.238281 1923.667969 C 2281.25 1931.675781 2330.820312 1932.96875 2658.597656 1933.757812 C 2865.507812 1934.253906 3041.875 1936.910156 3050.542969 1939.675781 C 3059.210938 1942.449219 3079.910156 1946.078125 3096.519531 1947.777344 C 3165.464844 1954.828125 3269.082031 1991.0625 3318.574219 2025.433594 C 3327.703125 2031.792969 3335.183594 2035.339844 3335.183594 2033.339844 C 3335.183594 2031.351562 3349.457031 2040.007812 3366.910156 2052.574219 L 3398.625 2075.421875 L 3868.773438 2073.839844 L 4338.929688 2072.257812 L 4334.65625 2058.734375 C 4331.015625 2047.175781 4320.53125 2025.273438 4275.441406 1934.992188 C 4271.722656 1927.550781 4266.703125 1921.433594 4264.289062 1921.402344 C 4261.886719 1921.367188 4255.703125 1913.195312 4250.546875 1903.230469 L 4241.160156 1885.109375 L 3239.574219 1885.109375 C 2446.574219 1885.109375 2236.300781 1883.535156 2229.964844 1877.550781 C 2223.402344 1871.332031 2223.136719 1872.246094 2228.519531 1882.726562 M 3424.875 2102.621094 L 3443.007812 2120.742188 L 3899.644531 2120.742188 C 4200.039062 2120.742188 4356.28125 2118.671875 4356.28125 2114.699219 C 4356.28125 2111.378906 4353.65625 2108.652344 4350.429688 2108.652344 C 4347.207031 2108.652344 4345.878906 2105.253906 4347.472656 2101.105469 C 4349.785156 2095.09375 4256.335938 2093.871094 3889.96875 2095.140625 C 3585.21875 2096.183594 3427.519531 2094.65625 3423.476562 2090.609375 C 3420.101562 2087.234375 3414.96875 2084.484375 3412.054688 2084.484375 C 3409.144531 2084.484375 3414.910156 2092.644531 3424.875 2102.621094 M 2705.304688 2723.160156 C 2712.78125 2724.605469 2725.019531 2724.605469 2732.5 2723.160156 C 2739.964844 2721.726562 2733.851562 2720.546875 2718.894531 2720.546875 C 2703.949219 2720.546875 2697.824219 2721.726562 2705.304688 2723.160156 "/>
<path style=" stroke:none;fill-rule:evenodd;fill:rgb(87.058824%,76.078431%,1.568627%);fill-opacity:1;" d="M 3405.085938 2077.769531 C 3403.28125 2080.71875 3407.46875 2084.601562 3414.414062 2086.425781 C 3421.347656 2088.242188 3425.347656 2092.4375 3423.300781 2095.742188 C 3421.253906 2099.070312 3422.757812 2103.753906 3426.640625 2106.15625 C 3431.070312 2108.882812 3432.097656 2107.902344 3429.402344 2103.554688 C 3426.15625 2098.296875 3538.71875 2096.574219 3884.285156 2096.574219 C 4339.730469 2096.574219 4343.4375 2096.480469 4342.539062 2084.484375 C 4341.554688 2071.390625 3413.140625 2064.730469 3405.085938 2077.769531 M 3451.78125 2134.335938 C 3456.902344 2141.8125 3464.238281 2147.1875 3468.078125 2146.273438 C 3471.914062 2145.359375 3473.242188 2147.535156 3471.023438 2151.117188 C 3468.804688 2154.699219 3472.644531 2162.523438 3479.53125 2168.5 C 3486.421875 2174.476562 3490.707031 2180.730469 3489.042969 2182.382812 C 3487.378906 2184.046875 3490.015625 2193.097656 3494.867188 2202.492188 C 3499.757812 2211.890625 3502.289062 2221.910156 3500.507812 2224.800781 C 3498.730469 2227.667969 3500.890625 2234.382812 3505.292969 2239.699219 C 3518.632812 2255.765625 3514.390625 2363.957031 3498.789062 2405.347656 C 3475.914062 2466.027344 3420.769531 2534.9375 3366.171875 2571.066406 C 3352.949219 2579.828125 3340.671875 2590.796875 3338.882812 2595.445312 C 3337.101562 2600.101562 3332.039062 2602.515625 3327.648438 2600.828125 C 3323.253906 2599.140625 3314.308594 2602.738281 3307.777344 2608.828125 C 3301.261719 2614.90625 3293.746094 2620.132812 3291.125 2620.433594 C 3279.300781 2621.773438 3250.601562 2636.277344 3250.601562 2640.902344 C 3250.601562 2643.710938 3246.519531 2644.449219 3241.527344 2642.542969 C 3236.546875 2640.625 3232.464844 2641.988281 3232.464844 2645.558594 C 3232.464844 2649.132812 3228.386719 2650.496094 3223.40625 2648.585938 C 3218.421875 2646.667969 3214.34375 2648.113281 3214.34375 2651.789062 C 3214.34375 2656.632812 3362.785156 2658.480469 3751.386719 2658.480469 L 4288.433594 2658.480469 L 4298.882812 2642.53125 C 4304.625 2633.757812 4309.699219 2620.433594 4310.152344 2612.90625 C 4310.601562 2605.371094 4313.46875 2600.761719 4316.519531 2602.65625 C 4319.605469 2604.550781 4320.300781 2601.453125 4318.113281 2595.722656 C 4315.746094 2589.5625 4316.554688 2586.855469 4320.101562 2589.039062 C 4323.386719 2591.0625 4326.066406 2591.871094 4326.066406 2590.808594 C 4326.066406 2589.769531 4334.226562 2564.929688 4344.203125 2535.628906 C 4363.421875 2479.066406 4363.339844 2479.46875 4374.726562 2395.707031 C 4381.476562 2346.019531 4376.644531 2184.183594 4368.414062 2184.183594 C 4367.894531 2184.183594 4366.253906 2177.597656 4364.773438 2169.539062 C 4363.296875 2161.507812 4359.089844 2151.3125 4355.425781 2146.886719 C 4350.652344 2141.132812 4350.628906 2138.867188 4355.34375 2138.867188 C 4358.984375 2138.867188 4360.371094 2134.785156 4358.476562 2129.804688 C 4355.425781 2121.863281 4298.71875 2120.742188 3898.71875 2120.742188 L 3442.464844 2120.742188 L 3451.78125 2134.335938 M 3156.945312 2664.527344 C 3141.550781 2671.136719 3157.429688 2671.136719 3178.097656 2664.527344 C 3190.234375 2660.644531 3190.824219 2659.648438 3181.113281 2659.511719 C 3174.46875 2659.417969 3163.59375 2661.671875 3156.945312 2664.527344 M 2508.941406 2723.34375 C 2524.71875 2724.582031 2550.550781 2724.582031 2566.339844 2723.34375 C 2582.128906 2722.097656 2569.207031 2721.078125 2537.640625 2721.078125 C 2506.066406 2721.078125 2493.15625 2722.097656 2508.941406 2723.34375 M 2647.90625 2723.230469 C 2657.046875 2724.605469 2672.003906 2724.605469 2681.136719 2723.230469 C 2690.277344 2721.84375 2682.800781 2720.710938 2664.527344 2720.710938 C 2646.242188 2720.710938 2638.761719 2721.84375 2647.90625 2723.230469 M 4141.414062 2853.339844 L 4123.664062 2872.976562 L 4143.300781 2855.222656 C 4154.105469 2845.46875 4162.9375 2836.625 4162.9375 2835.585938 C 4162.9375 2830.917969 4157.953125 2835.03125 4141.414062 2853.339844 "/>
<path style=" stroke:none;fill-rule:evenodd;fill:rgb(82.745098%,73.72549%,1.568627%);fill-opacity:1;" d="M 3185.75 2662.332031 C 3172.699219 2666.109375 3150.589844 2670.511719 3136.582031 2672.132812 C 3102.34375 2676.097656 3100.3125 2679.863281 3122.015625 2699.304688 C 3140.40625 2715.738281 3258.773438 2824.90625 3271.277344 2836.949219 C 3274.851562 2840.394531 3313.128906 2875.460938 3356.335938 2914.875 C 3399.527344 2954.296875 3462.066406 3011.441406 3495.296875 3041.863281 C 3528.527344 3072.28125 3569.316406 3109.257812 3585.921875 3124.027344 C 3602.542969 3138.824219 3622.125 3157.015625 3629.441406 3164.492188 C 3647.332031 3182.777344 3655.109375 3181.957031 3637.886719 3163.625 C 3622.875 3147.640625 3624.550781 3145.285156 3655.410156 3138.867188 C 3758.371094 3117.429688 3969.535156 3006.472656 4069.28125 2921.382812 C 4131.335938 2868.457031 4253.4375 2733.007812 4253.539062 2716.964844 C 4253.550781 2714.25 4261.828125 2699.996094 4271.941406 2685.308594 L 4290.316406 2658.597656 L 3749.886719 2657.023438 C 3359.882812 2655.890625 3202.878906 2657.371094 3185.75 2662.332031 M 2401.695312 2746.785156 C 2388.402344 2760.65625 2295.71875 2855.90625 2195.71875 2958.4375 C 1883.050781 3279.070312 1833.800781 3330.121094 1831.652344 3336.027344 C 1830.335938 3339.597656 1964.152344 3341.449219 2187.535156 3340.9375 L 2545.523438 3340.117188 L 2721.335938 3514.390625 C 2818.015625 3610.230469 2840.058594 3630.859375 2770.304688 3560.253906 L 2643.480469 3431.855469 L 3645.679688 3431.855469 L 3664.136719 3448.324219 C 3674.296875 3457.386719 3516.75 3298.472656 3314.03125 3095.214844 L 2945.480469 2725.65625 L 2685.664062 2723.597656 L 2425.863281 2721.542969 L 2401.695312 2746.785156 M 2984.742188 3779.265625 C 3012.839844 3807.515625 3037.191406 3830.628906 3038.855469 3830.628906 C 3040.511719 3830.628906 3018.886719 3807.515625 2990.789062 3779.265625 C 2962.691406 3751.03125 2938.347656 3727.914062 2936.683594 3727.914062 C 2935.019531 3727.914062 2956.65625 3751.03125 2984.742188 3779.265625 "/>
<path style=" stroke:none;fill-rule:evenodd;fill:rgb(75.294118%,66.27451%,1.568627%);fill-opacity:1;" d="M 2782.835938 3571.972656 C 2859.003906 3649.03125 3047.941406 3839.855469 3202.714844 3996.039062 L 3484.132812 4279.984375 L 3978.976562 4272.460938 C 4251.136719 4268.324219 4475.085938 4263.652344 4476.65625 4262.105469 C 4478.207031 4260.53125 4293.113281 4073.097656 4065.328125 3845.550781 L 3651.167969 3431.855469 L 2644.367188 3431.855469 L 2782.835938 3571.972656 "/>
<path style=" stroke:none;fill-rule:evenodd;fill:rgb(92.54902%,80%,1.568627%);fill-opacity:1;" d="M 1646.898438 1358.074219 C 1678.945312 1387.382812 1786.5625 1485.535156 1899.589844 1588.5625 C 1949.105469 1633.699219 2028.417969 1706.652344 2075.851562 1750.6875 L 2162.097656 1830.75 L 3180.59375 1829.226562 L 4199.078125 1827.699219 L 4161.386719 1782.84375 C 4128.457031 1743.660156 4097.273438 1716.9375 4111.675781 1740.25 C 4114.84375 1745.371094 4114.070312 1746.515625 4109.386719 1743.625 C 4105.503906 1741.234375 4103.703125 1737.027344 4105.390625 1734.308594 C 4110.207031 1726.484375 4015.363281 1648.585938 3942.410156 1600.445312 C 3763.617188 1482.496094 3552.453125 1403.632812 3277.785156 1352.246094 C 3205.28125 1338.679688 3205.269531 1338.679688 2413.773438 1337.128906 L 1622.277344 1335.558594 L 1646.898438 1358.074219 M 2214.398438 1873.019531 C 2226.753906 1886.65625 2232.324219 1888.851562 2225.945312 1877.550781 C 2222.535156 1871.503906 2223.308594 1871.503906 2229.816406 1877.550781 C 2236.265625 1883.535156 2446.644531 1885.109375 3239.574219 1885.109375 L 4241.160156 1885.109375 L 4250.835938 1903.785156 C 4256.152344 1914.074219 4261.917969 1921.054688 4263.652344 1919.320312 C 4265.398438 1917.574219 4258.265625 1903.738281 4247.808594 1888.550781 L 4228.828125 1860.941406 L 3216.144531 1860.941406 C 2203.832031 1860.941406 2203.453125 1860.941406 2214.398438 1873.019531 M 2262.734375 1919.769531 L 2280.855469 1938.820312 L 2668.835938 1940.65625 C 2882.246094 1941.671875 3052.171875 1940.796875 3046.460938 1938.714844 C 3040.777344 1936.621094 2866.25 1934.449219 2658.667969 1933.894531 C 2451.070312 1933.328125 2279.78125 1930.960938 2278.011719 1928.625 C 2276.246094 1926.289062 2268.015625 1919.042969 2259.707031 1912.535156 C 2248.066406 1903.429688 2248.757812 1905.070312 2262.734375 1919.769531 M 2334.855469 2811.035156 L 2317.101562 2830.671875 L 2336.738281 2812.933594 C 2347.546875 2803.164062 2356.375 2794.335938 2356.375 2793.292969 C 2356.375 2788.625 2351.394531 2792.726562 2334.855469 2811.035156 M 3644.789062 3169.300781 C 3647.25 3173.09375 3647.921875 3177.53125 3646.257812 3179.195312 C 3644.613281 3180.835938 3648.707031 3187.125 3655.375 3193.167969 C 3671.800781 3208.03125 3670.714844 3196.925781 3653.875 3177.808594 C 3646.40625 3169.347656 3642.316406 3165.511719 3644.789062 3169.300781 "/>
</g>
</svg>
