<!DOCTYPE svg PUBLIC "-//W3C//DTD SVG 1.1//EN" "http://www.w3.org/Graphics/SVG/1.1/DTD/svg11.dtd">
<!-- Uploaded to: SVG Repo, www.svgrepo.com, Transformed by: SVG Repo Mixer Tools -->
<svg version="1.1" id="Icons" xmlns="http://www.w3.org/2000/svg" xmlns:xlink="http://www.w3.org/1999/xlink" viewBox="0 0 32 32" xml:space="preserve" width="800px" height="800px" fill="#fff" stroke="#fff">
<g id="SVGRepo_bgCarrier" stroke-width="0"/>
<g id="SVGRepo_tracerCarrier" stroke-linecap="round" stroke-linejoin="round"/>
<g id="SVGRepo_iconCarrier"> <style type="text/css"> .st0{fill:none;stroke:#fff;stroke-width:2;stroke-linecap:round;stroke-linejoin:round;stroke-miterlimit:10;} </style> <line class="st0" x1="16" y1="6" x2="16" y2="7"/> <line class="st0" x1="16" y1="13" x2="16" y2="14"/> <path class="st0" d="M17,7h-1.5C14.7,7,14,7.7,14,8.5v0c0,0.8,0.7,1.5,1.5,1.5h1c0.8,0,1.5,0.7,1.5,1.5v0c0,0.8-0.7,1.5-1.5,1.5H15"/> <circle class="st0" cx="16" cy="10" r="7"/> <line class="st0" x1="16" y1="29" x2="16" y2="17"/> <path class="st0" d="M14,22c2.5,2.5,2,7,2,7s-4.5,0.5-7-2s-2-7-2-7S11.5,19.5,14,22z"/> <path class="st0" d="M18,22c-2.5,2.5-2,7-2,7s4.5,0.5,7-2s2-7,2-7S20.5,19.5,18,22z"/> </g>
</svg>