<?xml version="1.0" encoding="UTF-8" standalone="no"?>
<svg
   xmlns:dc="http://purl.org/dc/elements/1.1/"
   xmlns:cc="http://creativecommons.org/ns#"
   xmlns:rdf="http://www.w3.org/1999/02/22-rdf-syntax-ns#"
   xmlns:svg="http://www.w3.org/2000/svg"
   xmlns="http://www.w3.org/2000/svg"
   viewBox="0 0 68.654266 97.017197"
   height="97.017197"
   width="68.654266"
   xml:space="preserve"
   id="svg2"
   version="1.1"><metadata
     id="metadata8"><rdf:RDF><cc:Work
         rdf:about=""><dc:format>image/svg+xml</dc:format><dc:type
           rdf:resource="http://purl.org/dc/dcmitype/StillImage" /></cc:Work></rdf:RDF></metadata><defs
     id="defs6"><clipPath
       id="clipPath18"
       clipPathUnits="userSpaceOnUse"><path
         id="path16"
         d="M 0,72.763 H 51.491 V 0 H 0 Z" /></clipPath></defs><g
     transform="matrix(1.3333333,0,0,-1.3333333,0,97.0172)"
     id="g10"><g
       id="g12"><g
         clip-path="url(#clipPath18)"
         id="g14"><g
           transform="translate(51.4797,62.7906)"
           id="g20"><path
             id="path22"
             style="fill:#fff;fill-opacity:1;fill-rule:nonzero;stroke:none"
             d="m 0,0 c 0.378,11.506 -9.064,9.895 -9.064,9.895 0,0 6.672,-1.888 2.518,-8.929 -3.308,-5.606 -15.173,-2.285 -19.871,-0.699 -0.619,0.258 -1.25,0.493 -1.9,0.682 -0.025,0.01 -0.043,0.017 -0.043,0.017 V 0.964 c -1.594,0.46 -3.276,0.71 -5.019,0.71 -9.997,0 -18.101,-8.104 -18.101,-18.101 0,-2.469 0.499,-4.822 1.394,-6.966 l -0.002,-0.002 0.008,-0.017 c 0.292,-0.696 0.636,-1.362 1.008,-2.01 l 10.612,-21.173 v -16.196 h 13.338 v 3.652 c 0,6.987 -0.794,4.128 8.574,6.51 9.367,2.382 5.874,8.574 5.874,8.574 l -2.063,6.828 c 0,0 2.54,1.111 7.144,2.699 4.605,1.588 2.541,4.129 2.541,4.129 l -10.003,9.05 -1.6,4.983 C -6.518,-15.471 -0.256,-7.81 0,0" /></g></g></g></g></svg>