<?xml version="1.0" encoding="UTF-8" standalone="no"?>
<svg
   xmlns:dc="http://purl.org/dc/elements/1.1/"
   xmlns:cc="http://creativecommons.org/ns#"
   xmlns:rdf="http://www.w3.org/1999/02/22-rdf-syntax-ns#"
   xmlns:svg="http://www.w3.org/2000/svg"
   xmlns="http://www.w3.org/2000/svg"
   viewBox="0 0 76.442665 110.42133"
   height="110.42133"
   width="76.442665"
   xml:space="preserve"
   id="svg2"
   version="1.1"><metadata
     id="metadata8"><rdf:RDF><cc:Work
         rdf:about=""><dc:format>image/svg+xml</dc:format><dc:type
           rdf:resource="http://purl.org/dc/dcmitype/StillImage" /></cc:Work></rdf:RDF></metadata><defs
     id="defs6"><clipPath
       id="clipPath18"
       clipPathUnits="userSpaceOnUse"><path
         id="path16"
         d="M 0,82.816 H 57.332 V 0 H 0 Z" /></clipPath></defs><g
     transform="matrix(1.3333333,0,0,-1.3333333,0,110.42133)"
     id="g10"><g
       id="g12"><g
         clip-path="url(#clipPath18)"
         id="g14"><g
           transform="translate(51.332,14.9998)"
           id="g20"><path
             id="path22"
             style="fill:#fff;fill-opacity:1;fill-rule:nonzero;stroke:none"
             d="m 0,0 c 0,-4.963 -4.037,-9 -9,-9 h -27.332 c -4.963,0 -9,4.037 -9,9 v 28.944 c 2.135,-1.609 4.7,-2.674 7.5,-2.953 v -10.97 h 6 v 10.894 h 18.334 V 15.021 h 6 v 10.97 c 2.8,0.279 5.364,1.345 7.498,2.953 z m -28.324,57.481 c 0,2.391 1.944,4.335 4.334,4.335 h 2.648 c 2.391,0 4.336,-1.944 4.336,-4.335 V 56.833 H -28.324 Z M -9,56.833 h -2.006 v 0.648 c 0,5.699 -4.637,10.335 -10.336,10.335 h -2.648 c -5.698,0 -10.334,-4.636 -10.334,-10.335 v -0.648 h -2.008 c -8.271,0 -15,-6.729 -15,-15 V 0 c 0,-8.271 6.729,-15 15,-15 H -9 c 8.271,0 15,6.729 15,15 v 41.833 c 0,8.27 -6.728,15 -15,15" /></g></g></g></g></svg>