<?xml version="1.0" encoding="UTF-8" standalone="no"?>
<svg
   xmlns:dc="http://purl.org/dc/elements/1.1/"
   xmlns:cc="http://creativecommons.org/ns#"
   xmlns:rdf="http://www.w3.org/1999/02/22-rdf-syntax-ns#"
   xmlns:svg="http://www.w3.org/2000/svg"
   xmlns="http://www.w3.org/2000/svg"
   viewBox="0 0 48 48"
   height="48"
   width="48"
   xml:space="preserve"
   id="svg2"
   version="1.1"><metadata
     id="metadata8"><rdf:RDF><cc:Work
         rdf:about=""><dc:format>image/svg+xml</dc:format><dc:type
           rdf:resource="http://purl.org/dc/dcmitype/StillImage" /></cc:Work></rdf:RDF></metadata><defs
     id="defs6"><clipPath
       id="clipPath18"
       clipPathUnits="userSpaceOnUse"><path
         id="path16"
         d="M 0,36 H 36 V 0 H 0 Z" /></clipPath></defs><g
     transform="matrix(1.3333333,0,0,-1.3333333,0,48)"
     id="g10"><g
       id="g12"><g
         clip-path="url(#clipPath18)"
         id="g14"><g
           transform="translate(0,29)"
           id="g20"><path
             id="path22"
             style="fill:#ffffff;fill-opacity:1;fill-rule:nonzero;stroke:none"
             d="m 0,0 c 0,-0.55 0.45,-1 1,-1 h 6 c 0.55,0 1,0.45 1,1 V 6 C 8,6.55 7.55,7 7,7 H 1 C 0.45,7 0,6.55 0,6 Z" /></g><g
           transform="translate(0,1)"
           id="g24"><path
             id="path26"
             style="fill:#ffffff;fill-opacity:1;fill-rule:nonzero;stroke:none"
             d="m 0,0 c 0,-0.55 0.45,-1 1,-1 h 6 c 0.55,0 1,0.45 1,1 V 6 C 8,6.55 7.55,7 7,7 H 1 C 0.45,7 0,6.55 0,6 Z" /></g><g
           transform="translate(0,15)"
           id="g28"><path
             id="path30"
             style="fill:#ffffff;fill-opacity:1;fill-rule:nonzero;stroke:none"
             d="m 0,0 c 0,-0.55 0.45,-1 1,-1 h 6 c 0.55,0 1,0.45 1,1 V 6 C 8,6.55 7.55,7 7,7 H 1 C 0.45,7 0,6.55 0,6 Z" /></g><g
           transform="translate(29,36)"
           id="g32"><path
             id="path34"
             style="fill:#ffffff;fill-opacity:1;fill-rule:nonzero;stroke:none"
             d="m 0,0 c -0.55,0 -1,-0.45 -1,-1 v -6 c 0,-0.55 0.45,-1 1,-1 h 6 c 0.55,0 1,0.45 1,1 v 6 C 7,-0.45 6.55,0 6,0 Z" /></g><g
           transform="translate(28,1)"
           id="g36"><path
             id="path38"
             style="fill:#ffffff;fill-opacity:1;fill-rule:nonzero;stroke:none"
             d="m 0,0 c 0,-0.55 0.45,-1 1,-1 h 6 c 0.55,0 1,0.45 1,1 V 6 C 8,6.55 7.55,7 7,7 H 1 C 0.45,7 0,6.55 0,6 Z" /></g><g
           transform="translate(28,15)"
           id="g40"><path
             id="path42"
             style="fill:#ffffff;fill-opacity:1;fill-rule:nonzero;stroke:none"
             d="m 0,0 c 0,-0.55 0.45,-1 1,-1 h 6 c 0.55,0 1,0.45 1,1 V 6 C 8,6.55 7.55,7 7,7 H 1 C 0.45,7 0,6.55 0,6 Z" /></g><g
           transform="translate(14,29)"
           id="g44"><path
             id="path46"
             style="fill:#ffffff;fill-opacity:1;fill-rule:nonzero;stroke:none"
             d="m 0,0 c 0,-0.55 0.45,-1 1,-1 h 6 c 0.55,0 1,0.45 1,1 V 6 C 8,6.55 7.55,7 7,7 H 1 C 0.45,7 0,6.55 0,6 Z" /></g><g
           transform="translate(14,1)"
           id="g48"><path
             id="path50"
             style="fill:#ffffff;fill-opacity:1;fill-rule:nonzero;stroke:none"
             d="m 0,0 c 0,-0.55 0.45,-1 1,-1 h 6 c 0.55,0 1,0.45 1,1 V 6 C 8,6.55 7.55,7 7,7 H 1 C 0.45,7 0,6.55 0,6 Z" /></g><g
           transform="translate(14,15)"
           id="g52"><path
             id="path54"
             style="fill:#ffffff;fill-opacity:1;fill-rule:nonzero;stroke:none"
             d="m 0,0 c 0,-0.55 0.45,-1 1,-1 h 6 c 0.55,0 1,0.45 1,1 V 6 C 8,6.55 7.55,7 7,7 H 1 C 0.45,7 0,6.55 0,6 Z" /></g></g></g></g></svg>