<!DOCTYPE svg PUBLIC "-//W3C//DTD SVG 1.1//EN" "http://www.w3.org/Graphics/SVG/1.1/DTD/svg11.dtd">
<!-- Uploaded to: SVG Repo, www.svgrepo.com, Transformed by: SVG Repo Mixer Tools -->
<svg width="800px" height="800px" viewBox="0 0 512 512" id="Layer_1" version="1.1" xml:space="preserve" xmlns="http://www.w3.org/2000/svg" xmlns:xlink="http://www.w3.org/1999/xlink" fill="#000000">
<g id="SVGRepo_bgCarrier" stroke-width="0"/>
<g id="SVGRepo_tracerCarrier" stroke-linecap="round" stroke-linejoin="round"/>
<g id="SVGRepo_iconCarrier"> <style type="text/css"> .st0{fill:#fff;} </style> <g> <path class="st0" d="M320,104.4L320,104.4c-5.8-4.2-12-7.8-18.5-10.7c-8.1-3.7-16.7-6.4-25.5-8c-13-2.4-27.1-2.3-40.1,0.3 c-8.2,1.6-16.3,4.2-24,7.7c-3.1,1.4-6.2,3-9.3,4.8c-23.9,13.8-41.5,36-49.4,62.3c-3,10.1-4.6,20.6-4.6,31.3c0,2,0.1,4,0.2,5.8 c2.1,40.6,26.5,76.2,63.7,92.8c13.9,6.3,28.8,9.4,44.2,9.4c15.4,0,30.3-3.2,44.2-9.4c38.8-17.4,63.8-56.1,63.8-98.6 C364.7,157.4,348,124.6,320,104.4z M295.2,277.7c-12.1,5.4-25,8.2-38.4,8.2c-13.4,0-26.4-2.8-38.5-8.2 c-32.3-14.5-53.5-45.5-55.4-80.8c-0.1-1.6-0.1-3.2-0.1-5c0-9.3,1.3-18.5,4-27.2c6.9-22.9,22.2-42.2,43-54.2c2.7-1.5,5.4-2.9,8-4.2 c6.7-3,13.7-5.3,20.8-6.7c5.9-1.2,12-1.8,18.1-1.8c5.7,0,11.3,0.5,16.8,1.5c7.7,1.4,15.1,3.7,22.2,7c5.6,2.6,11,5.7,16.1,9.3v0 c24.4,17.7,39,46.1,39,76.2C350.7,228.9,328.9,262.6,295.2,277.7z"/> <path class="st0" d="M314.8,156.6c-0.1-0.2-0.2-0.3-0.3-0.5c-9.1-14.6-23.2-25.2-39.8-29.7c-5.8-1.6-11.8-2.4-18-2.4 c-23.7,0-45.2,12-57.7,32.1c-0.1,0.2-0.2,0.3-0.3,0.5c-1,1.5-1.9,3.2-2.7,4.8c-4.8,9.5-7.2,19.8-7.2,30.5c0,2.1,0.1,4,0.2,5.6 c1.7,21.4,13.8,41,32.2,52.3c10.7,6.6,22.9,10,35.5,10c37.5,0,67.9-30.5,67.9-67.9c0-9.9-2.1-19.5-6.2-28.4 C317.3,161.1,316.1,158.8,314.8,156.6z M256.7,245.9c-10,0-19.7-2.7-28.2-8c-14.6-9-24.2-24.5-25.6-41.6c-0.1-1.3-0.2-2.7-0.2-4.4 c0-8.5,1.9-16.7,5.7-24.2c0.7-1.4,1.4-2.7,2.2-3.9c0.1-0.1,0.1-0.2,0.2-0.3c9.9-15.9,27-25.4,45.8-25.4c4.9,0,9.7,0.6,14.3,1.9 c13.1,3.6,24.3,11.9,31.5,23.5c0.1,0.1,0.1,0.2,0.2,0.3c1.1,1.7,2.1,3.6,3,5.7c3.3,7.1,4.9,14.7,4.9,22.6 C310.7,221.7,286.5,245.9,256.7,245.9z"/> <path class="st0" d="M261.8,184.5v-20c3.5,0.8,7.1,2.4,10.7,4.6c1,0.6,2.1,0.9,3.1,0.9c3.2,0,5.8-2.5,5.8-5.7c0-2.5-1.5-4-3.1-5 c-4.8-3-10-5-16.1-5.7v-2.3c0-2.5-2-4.5-4.5-4.5c-2.5,0-4.6,2-4.6,4.5v2.2c-4.1,0.3-7.8,1.3-10.9,2.9c-3.9,1.9-6.9,4.7-8.8,8.2 c-1.4,2.6-2.2,5.6-2.2,8.8c0,4.8,1.2,8.5,3.6,11.6c3.5,4.5,9.7,7.5,18.7,9.8v20.5c-5.7-1-10.5-3.4-15.4-7c-0.9-0.7-2.2-1.1-3.4-1.1 c-3.2,0-5.7,2.5-5.7,5.7c0,2.2,1,3.8,2.8,5c6.3,4.5,13.5,7.3,21.3,8.1v6.4c0,2.5,2.1,4.5,4.6,4.5c2.5,0,4.5-2,4.5-4.5v-6.2 c13.2-1.2,22.2-8.8,22.2-20.3c0-3.4-0.6-6.4-2-9C279.4,191.2,272.8,187.3,261.8,184.5z M253.6,182.4c-1.6-0.5-3-1.1-4.2-1.6 c0,0,0,0,0,0c-4.6-2.2-5.8-4.6-5.8-8.1c0-4.6,3.3-8.1,10-8.7V182.4z M261.8,215.8v-18.9c0.2,0.1,0.3,0.1,0.5,0.2 c7.6,2.5,9.8,5.2,9.8,9.7C272.1,211.7,268.5,215,261.8,215.8z"/> <path class="st0" d="M414.7,32.6c-1.3-2.2-3.6-3.5-6.1-3.5H104.8c-2.5,0-4.8,1.3-6.1,3.5l-48,82.6c-1.3,2.2-1.3,4.8,0,7 s3.6,3.5,6.1,3.5H100v220.4H55.3c-3.9,0-7,3.1-7,7v122.7c0,3.9,3.1,7,7,7h66.1c3.9,0,7-3.1,7-7v-19L342.8,467c0.1,0,0.2,0,0.3,0 c2.2,0,4.2-1,5.5-2.7L435.1,353c3.2-4.1,4.9-9.1,4.9-14.4c0-8.4-4.6-16.3-11.9-20.4c-4.6-2.6-9.7-3.5-14.7-2.9V125.7h43.3 c2.5,0,4.8-1.3,6.1-3.5s1.2-4.8,0-7L414.7,32.6z M114.4,468.8H62.3V360.2H107h7.4V378v71.5V468.8z M421.2,330.4 c3,1.7,4.8,4.8,4.8,8.2c0,2.1-0.7,4.1-2,5.8l-84.2,108.4l-211.4-10v-61.3l68.5-49.9l118.4,21.7L315,355l-78.3,12.8 c-3.3,0.5-5.7,3.3-5.9,6.5c-0.2,3.3,2,6.3,5.2,7.1l97,26.4c0.3,0.1,0.6,0.1,0.9,0.2c0.1,0,0.2,0,0.2,0c0.2,0,0.4,0,0.7,0 c0,0,0,0,0,0c0,0,0.1,0,0.1,0c0.3,0,0.5,0,0.8-0.1c0.1,0,0.2,0,0.2,0c0.2,0,0.4-0.1,0.6-0.1c0.1,0,0.1,0,0.2-0.1 c0.3-0.1,0.5-0.2,0.8-0.3c0,0,0,0,0,0c0.2-0.1,0.5-0.2,0.7-0.4c0.1,0,0.1-0.1,0.2-0.1c0.2-0.1,0.3-0.2,0.5-0.4 c0.1-0.1,0.1-0.1,0.2-0.2c0.2-0.2,0.4-0.4,0.6-0.6l69.7-73.7c0.3-0.4,0.7-0.7,1.1-1C413.8,328.8,417.9,328.5,421.2,330.4z M406.4,111.7c-3.9,0-7,3.1-7,7v203.9l-66.7,70.6l-61.8-16.8l51.4-8.4c3-0.5,5.3-2.8,5.8-5.8l2.1-13.4c0.6-3.7-1.9-7.3-5.7-8 l-128-23.5c-1.9-0.3-3.8,0.1-5.4,1.2l-62.7,45.7v-11c0-3.9-3.1-7-7-7H114V118.7c0-3.9-3.1-7-7-7H68.9l39.9-68.6h295.9l39.9,68.6 H406.4z"/> </g> </g>
</svg>