<?xml version="1.0" encoding="utf-8"?>
<!-- Generator: Adobe Illustrator 23.0.1, SVG Export Plug-In . SVG Version: 6.00 Build 0)  -->
<svg version="1.1" id="Layer_1" xmlns="http://www.w3.org/2000/svg" xmlns:xlink="http://www.w3.org/1999/xlink" x="0px" y="0px"
	 viewBox="0 0 492 492" style="enable-background:new 0 0 492 492;" xml:space="preserve">
<style type="text/css">
	.st0{fill:#FFFFFF;}
</style>
<g>
	<g>
		<path class="st0" d="M0,234l0,22.8c0,14.8,12.5,27.6,27.3,27.6h330L252.6,388.7c-5.1,5.1-7.8,11.5-7.8,18.7c0,7.2,2.8,14,7.8,19
			l16.1,16.1c5.1,5.1,11.8,7.8,19,7.8c7.2,0,14-2.8,19-7.8l177.4-177.4c5.1-5.1,7.9-11.9,7.8-19.1c0-7.2-2.8-14-7.8-19.1L306.7,49.5
			c-5.1-5.1-11.8-7.8-19-7.8c-7.2,0-13.9,2.8-19,7.9l-16.1,16.1c-5.1,5.1-7.8,11.9-7.8,19.1c0,7.2,2.8,14.1,7.8,19.1l103.5,103.7
			H26.9l0.8-0.2C12.8,207.4,0,219.2,0,234z"/>
	</g>
</g>
</svg>
