<?xml version="1.0" encoding="UTF-8" standalone="no"?>
<svg
   xmlns:dc="http://purl.org/dc/elements/1.1/"
   xmlns:cc="http://creativecommons.org/ns#"
   xmlns:rdf="http://www.w3.org/1999/02/22-rdf-syntax-ns#"
   xmlns:svg="http://www.w3.org/2000/svg"
   xmlns="http://www.w3.org/2000/svg"
   viewBox="0 0 60.779469 66.664536"
   height="66.664536"
   width="60.779469"
   xml:space="preserve"
   id="svg2"
   version="1.1"><metadata
     id="metadata8"><rdf:RDF><cc:Work
         rdf:about=""><dc:format>image/svg+xml</dc:format><dc:type
           rdf:resource="http://purl.org/dc/dcmitype/StillImage" /></cc:Work></rdf:RDF></metadata><defs
     id="defs6"><clipPath
       id="clipPath18"
       clipPathUnits="userSpaceOnUse"><path
         id="path16"
         d="M 0,49.998 H 45.585 V 0 H 0 Z" /></clipPath></defs><g
     transform="matrix(1.3333333,0,0,-1.3333333,0,66.664533)"
     id="g10"><g
       id="g12"><g
         clip-path="url(#clipPath18)"
         id="g14"><g
           transform="translate(10.8397,18.3599)"
           id="g20"><path
             id="path22"
             style="fill:#fff;fill-opacity:1;fill-rule:nonzero;stroke:none"
             d="m 0,0 c -0.009,-0.008 -0.021,-0.011 -0.03,-0.02 l -9.25,-9.25 c -1.01,-1 -1.56,-2.34 -1.56,-3.76 0,-1.429 0.55,-2.76 1.56,-3.77 1.01,-1.01 2.34,-1.56 3.77,-1.56 1.42,0 2.76,0.55 3.76,1.56 L 6.791,-8.268 8.62,-10.1 c 0.19,-0.18 0.44,-0.29 0.711,-0.29 0.259,0 0.519,0.11 0.699,0.29 l 4.461,4.46 -10.11,10.023 z" /></g><g
           transform="translate(45.2913,31.6592)"
           id="g24"><path
             id="path26"
             style="fill:#fff;fill-opacity:1;fill-rule:nonzero;stroke:none"
             d="m 0,0 -4.012,4.012 c 1.465,4.245 2.354,8.705 2.611,13.269 0.019,0.42 -0.21,0.8 -0.59,0.97 -0.38,0.17 -0.83,0.09 -1.12,-0.2 l -15.342,-15.347 5.44,-5.44 c 0.391,-0.391 0.391,-1.024 0,-1.414 -0.195,-0.196 -0.451,-0.293 -0.707,-0.293 -0.256,0 -0.511,0.097 -0.707,0.293 l -5.44,5.44 -3.208,-3.209 3.513,-3.513 c 0.391,-0.39 0.391,-1.023 0,-1.414 -0.195,-0.195 -0.451,-0.293 -0.707,-0.293 -0.255,0 -0.511,0.098 -0.707,0.293 l -3.512,3.513 -3.48,-3.481 -0.688,-0.688 0.484,-0.48 c 0.033,-0.051 0.051,-0.106 0.099,-0.154 l 12.245,-12.131 c 0.195,-0.195 0.451,-0.293 0.707,-0.293 0.256,0 0.512,0.098 0.707,0.293 0.391,0.391 0.391,1.024 0,1.414 l -2.743,2.718 1.446,1.446 c 2.119,2.12 4.024,4.412 5.703,6.845 l 5.228,-5.228 c 0.195,-0.196 0.451,-0.293 0.707,-0.293 0.256,0 0.511,0.097 0.707,0.293 0.39,0.39 0.39,1.023 0,1.414 l -5.52,5.52 c 1.618,2.567 2.995,5.272 4.111,8.086 l 3.361,-3.362 c 0.195,-0.195 0.451,-0.293 0.707,-0.293 0.256,0 0.512,0.098 0.707,0.293 0.391,0.391 0.391,1.023 0,1.414" /></g></g></g></g></svg>