<svg id="Capa_1" data-name="Capa 1" xmlns="http://www.w3.org/2000/svg" viewBox="0 0 612 612"><defs><style>.cls-1{fill:#ffb82f;}</style></defs><title>timer</title><path class="cls-1" d="M583.73,375.79c-12.32,124-112.79,223.67-236.88,235.07C200.16,624.34,75.08,516.49,60.57,376.31H34.72A20.41,20.41,0,0,1,17,345.69L74.85,245.56a20.43,20.43,0,0,1,35.37,0L168,345.69a20.41,20.41,0,0,1-17.68,30.62h-22.5c14.62,104.66,112,183.15,223.77,166.78,82.66-12.11,149.72-77.34,163.77-159.7,21-123.27-73.83-230.56-193.27-230.56a195.21,195.21,0,0,0-108.23,32.52c-14.91,9.88-35.57,7.93-46.5-6.22A33.36,33.36,0,0,1,175.07,131,261.37,261.37,0,0,1,289.5,88.13V50.18H262.72A16.68,16.68,0,0,1,246,33.5V16.69A16.69,16.69,0,0,1,262.72,0H386.93a16.69,16.69,0,0,1,16.69,16.69V33.5a16.68,16.68,0,0,1-16.69,16.68h-29.5V88.53C494.28,107,598.1,231.06,583.73,375.79Zm8.64-252.53-50.31-46.5a16.68,16.68,0,0,0-23.58.93l-13.31,14.4a16.68,16.68,0,0,0,.93,23.58l50.31,46.5a16.69,16.69,0,0,0,23.58-.93l13.31-14.4A16.69,16.69,0,0,0,592.37,123.26Zm-271,63.88V350.33H482.88C482.89,251,407.48,187.14,321.32,187.14Z"/></svg>