<!DOCTYPE svg PUBLIC "-//W3C//DTD SVG 1.1//EN" "http://www.w3.org/Graphics/SVG/1.1/DTD/svg11.dtd">
<!-- Uploaded to: SVG Repo, www.svgrepo.com, Transformed by: SVG Repo Mixer Tools -->
<svg fill="#d3693f" height="800px" width="800px" version="1.1" id="Layer_1" xmlns="http://www.w3.org/2000/svg" xmlns:xlink="http://www.w3.org/1999/xlink" viewBox="0 0 512 512" xml:space="preserve">
<g id="SVGRepo_bgCarrier" stroke-width="0"/>
<g id="SVGRepo_tracerCarrier" stroke-linecap="round" stroke-linejoin="round"/>
<g id="SVGRepo_iconCarrier"> <g> <g> <path d="M500.999,88.616c-14.668-35.41-42.247-62.991-77.658-77.658C405.792,3.69,387.337,0.004,368.488,0.004 c-33.783,0-65.999,11.696-91.767,33.13L207.112,4.3l-19.418,46.879c-38.362-12.728-81.03-3.059-110.321,26.234 c-29.292,29.292-38.963,71.96-26.234,110.321l-46.88,19.418l28.836,69.615c-33.828,40.745-42.642,97.208-22.177,146.615 c22.296,53.827,74.352,88.61,132.62,88.614c0.003,0,0.007,0,0.01,0c18.846,0,37.302-3.687,54.854-10.957 c35.411-14.668,62.991-42.247,77.658-77.658c14.668-35.411,14.668-74.414,0-109.825c-20.466-49.407-66.624-83.1-119.354-87.99 l-28.835-69.616l-48.52,20.098c-8.097-26.997-0.974-56.62,19.532-77.126c20.506-20.506,50.13-27.629,77.126-19.532l-20.098,48.521 l69.615,28.835c4.891,52.73,38.584,98.889,87.99,119.354c17.551,7.269,36.009,10.956,54.861,10.956c0.004,0,0,0,0.004,0 c58.262,0,110.321-34.785,132.618-88.615C515.667,163.03,515.667,124.028,500.999,88.616z M185.047,263.32 c27.979,11.078,50.984,33.085,62.909,61.877c18.527,44.728,6.111,94.679-27.329,125.947c-0.232-0.654-0.481-1.306-0.749-1.954 c-2.238-5.403-5.546-10.041-9.569-13.791c8.678-8.677,15.649-19.071,20.493-30.764c9.673-23.353,9.685-49.047,0.034-72.347 c-9.596-23.167-27.58-40.972-49.614-50.535c2.301-4.819,3.622-10.1,3.829-15.597C185.086,265.206,185.077,264.261,185.047,263.32z M202.733,343.93c6.542,15.793,6.529,33.218-0.034,49.065s-18.877,28.177-34.67,34.719c-7.821,3.24-16.043,4.882-24.437,4.882 c-26.091,0-49.387-15.539-59.348-39.587c-13.531-32.668,2.037-70.254,34.705-83.784c7.821-3.24,16.043-4.882,24.437-4.882 C169.476,304.343,192.772,319.881,202.733,343.93z M111.409,195.693l24.636,59.483l9.701,0.218v0.008 c5.105,0.193,9.102,4.503,8.91,9.608c-0.093,2.473-1.144,4.762-2.959,6.445c-1.815,1.682-4.184,2.556-6.648,2.465l-0.001,0.036 c-0.554-0.009-1.105-0.03-1.661-0.03c-12.409,0-24.547,2.421-36.077,7.197c-48.165,19.949-71.119,75.363-51.168,123.527 c14.686,35.455,49.012,58.364,87.451,58.364c12.409,0,24.547-2.421,36.077-7.197c0.002-0.001,0.004-0.002,0.006-0.003 c4.718-1.952,10.146,0.298,12.099,5.016c0.947,2.286,0.947,4.805,0,7.092s-2.728,4.067-5.014,5.014 c-13.844,5.734-28.381,8.641-43.213,8.641c-0.002,0-0.006,0-0.008,0c-45.922-0.003-86.948-27.416-104.518-69.836 c-17.146-41.395-8.21-89.078,22.766-121.478l6.853-7.169l-24.637-59.481L111.409,195.693z M368.379,256.637 c-14.838,0-29.38-2.907-43.222-8.64c-28.789-11.925-50.797-34.929-61.875-62.906c0.433,0.014,0.866,0.03,1.3,0.03 c0.51,0,1.022-0.01,1.534-0.029c5.528-0.209,10.836-1.543,15.677-3.868c9.825,22.611,27.671,40.215,50.455,49.653 c11.53,4.776,23.668,7.197,36.078,7.197c25.737,0,49.622-10.282,67.01-27.714c3.818,4.088,8.492,7.354,13.814,9.559 c0.661,0.274,1.326,0.525,1.995,0.762C430.169,243.232,400.475,256.639,368.379,256.637z M309.184,118.988 c9.961-24.048,33.256-39.587,59.348-39.587c8.395,0,16.616,1.643,24.437,4.881c32.667,13.533,48.235,51.118,34.704,83.786 c-9.961,24.048-33.256,39.587-59.348,39.587c-8.395,0-16.616-1.643-24.436-4.882c-15.793-6.542-28.107-18.872-34.67-34.719 C302.654,152.207,302.642,134.782,309.184,118.988z M472.896,186.801c-0.947,2.285-2.728,4.067-5.014,5.014 c-2.286,0.948-4.805,0.948-7.092,0c-2.286-0.947-4.067-2.728-5.014-5.014c-0.947-2.285-0.947-4.802-0.002-7.088 c0.001-0.001,0.001-0.003,0.002-0.004c19.95-48.164-3.003-103.577-51.167-123.528c-11.531-4.776-23.669-7.197-36.077-7.197 c-38.439,0-72.765,22.909-87.451,58.364c-5.033,12.152-7.413,24.956-7.19,37.739h-0.012c0.093,2.473-0.782,4.835-2.465,6.649 c-1.683,1.815-3.972,2.865-6.445,2.959c-5.099,0.201-9.415-3.804-9.608-8.91h-0.008l-0.218-9.701l-59.481-24.637l27.92-67.405 l59.481,24.637l7.169-6.853c20.876-19.959,49.403-31.406,78.265-31.406c14.834,0,29.372,2.907,43.212,8.64 C469.303,62.923,496.756,129.198,472.896,186.801z"/> </g> </g> <g> <g> <circle cx="243.754" cy="91.884" r="14.337"/> </g> </g> <g> <g> <circle cx="91.844" cy="243.795" r="14.337"/> </g> </g> </g>
</svg>