<svg id="Capa_1" data-name="Capa 1" xmlns="http://www.w3.org/2000/svg" viewBox="0 0 486.46 486.46"><defs><style>.cls-1{fill:#eed73f;}</style></defs><title>warn</title><path class="cls-1" d="M243.23,333.38a25,25,0,0,0,0,50c13.1,0,25-11.4,24.4-24.4A24.42,24.42,0,0,0,243.23,333.38Z"/><path class="cls-1" d="M474.63,422a85.39,85.39,0,0,0,.2-86.4L318.23,64.38a86.28,86.28,0,0,0-149.8-.1L11.63,335.78a86.61,86.61,0,0,0,75,129.8H399.42C430.73,465.58,458.83,449.28,474.63,422Zm-34-19.6a47.28,47.28,0,0,1-41.3,23.9H86.53a46.61,46.61,0,0,1-40.8-23.4,47.32,47.32,0,0,1-.1-47.7l156.8-271.4a47.09,47.09,0,0,1,81.8.1l156.7,271.4A46.69,46.69,0,0,1,440.63,402.38Z"/><path class="cls-1" d="M237,157.88c-11.89,3.4-19.3,14.2-19.3,27.3.6,7.9,1.1,15.9,1.7,23.8,1.7,30.1,3.4,59.6,5.1,89.7a18.33,18.33,0,0,0,18.7,17.6c10.2,0,18.2-7.9,18.7-18.2,0-6.2,0-11.9.6-18.2,1.11-19.3,2.3-38.6,3.4-57.9.6-12.5,1.71-25,2.3-37.5a30.88,30.88,0,0,0-2.3-12.5A25.05,25.05,0,0,0,237,157.88Z"/></svg>