<!DOCTYPE svg PUBLIC "-//W3C//DTD SVG 1.1//EN" "http://www.w3.org/Graphics/SVG/1.1/DTD/svg11.dtd">
              <svg viewBox="0 0 40 51" fill="none" xmlns="http://www.w3.org/2000/svg"> <path d="M27.6278 25.5448C18.5294 17.8086 9.54289 13.4276 9.60019 1.63308C9.60439 0.742356 8.88081 0.0359478 8.00823 0.031865L1.60838 0C0.703501 0 0.00441735 0.721644 0.000417448 1.58529C-0.0506814 11.9047 4.59221 18.9356 12.3731 25.5448C21.4459 33.2481 30.3997 37.6423 30.3997 49.4068C30.3997 50.287 31.1157 51 31.9997 51H38.3995C39.2835 51 39.9995 50.287 39.9995 49.4068C39.9995 39.1237 35.3486 32.1118 27.6278 25.5448Z" fill="#E5FFFF"/> <path d="M17.058 33.385C14.9305 31.6911 12.3541 29.7229 10.3147 27.9858C10.1193 27.8194 9.82859 27.8272 9.64389 28.0054C3.45084 33.9802 0.000117475 40.6052 0.000417468 49.4077C0.000417468 50.287 0.717401 51 1.60038 51H8.00023C8.88431 51 9.60009 50.2857 9.60019 49.4054C9.60059 42.789 12.3646 38.4319 17.0825 34.1404C17.3089 33.9345 17.2975 33.5757 17.058 33.385Z" fill="#E5FFFF"/> <path d="M22.9424 17.7027C25.2201 19.5154 27.375 21.1441 29.6884 23.1072C29.8841 23.2733 30.1754 23.2668 30.3603 23.0888C36.5205 17.1614 40.0438 10.4994 39.9996 1.58529C39.9954 0.723834 39.2997 0.00219072 38.3915 0L31.9917 0.031865C31.1077 0.0358482 30.3957 0.752812 30.3997 1.63308C30.4317 8.22238 27.6994 12.6012 22.9183 16.9467C22.6918 17.1527 22.7028 17.512 22.9424 17.7027Z" fill="#E5FFFF"/> <path d="M14.0675 7.18557H25.9293C26.1437 7.18557 26.334 7.04924 26.4035 6.8473C26.6618 6.09758 26.8481 5.33929 26.9756 4.57562C27.0261 4.2734 26.789 3.99906 26.4813 3.99906H13.5173C13.2097 3.99906 12.9726 4.2733 13.023 4.57542C13.1504 5.33998 13.338 6.10574 13.5933 6.8474C13.6628 7.04934 13.8531 7.18557 14.0675 7.18557Z" fill="#E5FFFF"/> <path d="M15.9909 11.1731C16.6064 11.9627 17.2812 12.7035 17.992 13.4128C18.0858 13.5064 18.2137 13.5586 18.3465 13.5586H21.6498C21.7824 13.5586 21.9099 13.5067 22.0035 13.4133C22.7057 12.7127 23.3874 11.9639 24.004 11.1732C24.2582 10.8473 24.0213 10.3722 23.6068 10.3722H16.388C15.9737 10.3721 15.7369 10.8471 15.9909 11.1731Z" fill="#E5FFFF"/> <path d="M23.9415 39.8417C23.3222 39.0525 22.6402 38.3089 21.9288 37.6022C21.835 37.5091 21.7076 37.4574 21.5752 37.4574H18.4248C18.2924 37.4574 18.165 37.5091 18.0713 37.6022C17.3585 38.3097 16.6779 39.0509 16.0571 39.8416C15.8014 40.1673 16.038 40.644 16.4532 40.644H23.5453C23.9603 40.6439 24.1971 40.1674 23.9415 39.8417Z" fill="#E5FFFF"/> <path d="M25.8949 43.8304H14.1054C13.8923 43.8304 13.7028 43.9646 13.6324 44.1649C13.3824 44.8767 13.1845 45.6369 13.0454 46.4295C12.9917 46.7356 13.2254 47.0169 13.5375 47.0169H26.4631C26.775 47.0169 27.0085 46.7359 26.9552 46.4299C26.8162 45.6316 26.6194 44.8829 26.3679 44.1653C26.2977 43.9649 26.1081 43.8304 25.8949 43.8304Z" fill="#E5FFFF"/> </svg>