<!DOCTYPE svg PUBLIC "-//W3C//DTD SVG 1.1//EN" "http://www.w3.org/Graphics/SVG/1.1/DTD/svg11.dtd">
             <svg viewBox="0 0 47 51" fill="none" xmlns="http://www.w3.org/2000/svg"> <path d="M44.8636 31.8752C44.195 31.8752 43.5519 31.5628 43.1396 31.0061L37.6406 23.5389C35.7499 20.972 32.0668 20.394 29.422 22.2576C25.8799 24.7565 21.1201 24.7565 17.5737 22.2576C14.9375 20.3961 11.248 20.972 9.35727 23.5389L3.85827 31.0061C3.3135 31.7498 2.34359 32.0558 1.47195 31.7711C0.593909 31.4842 0 30.6704 0 29.7502C0 26.9261 0.277727 23.5283 0.826773 19.6566C1.93341 11.8239 8.90864 5.92076 17.0503 5.92076H23.2372C27.3091 5.92076 31.1503 4.19315 33.7738 1.18419C34.6796 0.270447 35.7798 -0.112048 36.9249 0.0282002C38.0508 0.168449 39.0292 0.810191 39.6082 1.78556C41.8279 5.52551 47 15.7424 47 29.7502C47 30.6704 46.4061 31.4842 45.528 31.7711C45.3101 31.8412 45.0858 31.8752 44.8636 31.8752Z" fill="#E5FFFF"/> <path d="M37.3009 42.1814C36.5959 41.8201 35.7414 41.8626 35.1005 42.3301C34.3527 42.8401 34.1177 42.7763 33.9468 42.6276L32.1736 40.4601C30.9986 39.0364 29.14 38.2501 27.2386 38.2501C26.2345 38.2501 25.2091 38.4626 24.2691 38.9301C23.7991 39.1426 23.2009 39.1426 22.7309 38.9301C21.7909 38.4626 20.7655 38.2501 19.7614 38.2501C17.86 38.2501 16.0014 39.0364 14.8264 40.4601L13.0532 42.6276C12.8823 42.7763 12.6473 42.8401 11.8995 42.3301C11.2586 41.8839 10.4041 41.8201 9.69909 42.1814C8.99409 42.5426 8.54545 43.2651 8.54545 44.0726C8.54545 47.8975 12.1559 51 16.5995 51C19.2059 51 21.6414 50.1713 23.5 48.6625C25.3373 50.1713 27.7941 51 30.4005 51C34.8441 51 38.4545 47.8975 38.4545 44.0726C38.4545 43.2651 38.0059 42.5426 37.3009 42.1814Z" fill="#fff"/> </svg>