<!DOCTYPE svg PUBLIC "-//W3C//DTD SVG 1.1//EN" "http://www.w3.org/Graphics/SVG/1.1/DTD/svg11.dtd">
<!-- Uploaded to: SVG Repo, www.svgrepo.com, Transformed by: SVG Repo Mixer Tools -->
<svg fill="#fff" height="800px" width="800px" version="1.1" id="Layer_1" xmlns="http://www.w3.org/2000/svg" xmlns:xlink="http://www.w3.org/1999/xlink" viewBox="0 0 512.006 512.006" xml:space="preserve" stroke="#fff">
<g id="SVGRepo_bgCarrier" stroke-width="0"/>
<g id="SVGRepo_tracerCarrier" stroke-linecap="round" stroke-linejoin="round"/>
<g id="SVGRepo_iconCarrier"> <g> <g> <g> <path d="M445.707,352.007c-0.57,0-1.132,0.029-1.699,0.043c-0.091-2.802-0.731-5.632-1.979-8.337l-65.808-142.812l65.808-142.812 c5-10.851,0.257-23.7-10.594-28.7c-10.849-5-23.7-0.258-28.699,10.594l-50.334,109.231L302.07,39.982 c-5-10.851-17.848-15.592-28.699-10.594c-10.851,5-15.594,17.848-10.594,28.7l65.808,142.812l-65.808,142.812 c-1.249,2.71-1.889,5.545-1.98,8.351c-0.756-0.026-1.51-0.058-2.271-0.058c-36.616,0-66.301,29.684-66.301,66.301 c0,36.616,29.685,66.301,66.301,66.301c36.616,0,66.301-29.685,66.301-66.301c0-21.182-9.945-40.028-25.408-52.167 c1.027-1.307,1.924-2.747,2.649-4.322l50.334-109.231l50.334,109.231c0.674,1.464,1.493,2.814,2.429,4.045 c-15.663,12.127-25.759,31.101-25.759,52.443c0,36.616,29.684,66.301,66.301,66.301c36.619,0,66.301-29.685,66.301-66.301 C512.008,381.69,482.326,352.007,445.707,352.007z"/> <path d="M182.575,274.185l-63.856-22.438c-6.759-2.375-10.868-9.548-8.934-16.446c2.119-7.558,10.13-11.645,17.417-9.084 l64.291,22.591c7.336,2.577,15.372-1.279,17.949-8.615c2.577-7.336-1.279-15.372-8.615-17.949l-63.857-22.438 c-6.759-2.375-10.868-9.548-8.934-16.446c2.119-7.558,10.13-11.645,17.417-9.084l64.291,22.591 c7.336,2.577,15.372-1.279,17.949-8.615c2.577-7.336-1.279-15.372-8.615-17.949l-63.857-22.438 c-6.759-2.375-10.868-9.548-8.934-16.446c2.119-7.558,10.13-11.645,17.417-9.084l59.572,20.933 c9.942,3.493,20.833-1.733,24.327-11.676l1.243-3.538c3.84-10.93,0.79-22.61-6.876-30.301c-3-3.008-6.706-5.407-10.983-6.909 l-56.278-19.776c-31.264-10.986-65.513,5.453-76.5,36.717l-3.233,9.201c-2.887,8.214-5.773,16.429-8.66,24.643 c-4.181,11.899-8.363,23.798-12.544,35.696c-4.961,14.12-9.923,28.24-14.884,42.36c-5.228,14.879-10.456,29.756-15.683,44.634 c-4.98,14.172-9.961,28.345-14.941,42.517c-4.218,12.004-8.437,24.007-12.655,36.012c-2.955,8.411-6.011,16.795-8.85,25.243 c-3.842,11.435-7.886,23.275-6.467,35.52c1.18,10.176,4.432,19.743,10.295,28.233c7.165,10.373,17.561,18.285,29.453,22.464 l56.278,19.776c4.277,1.503,8.669,1.951,12.891,1.48c4.691-0.523,9.175-2.182,13.06-4.786c0.388-0.261,0.772-0.531,1.146-0.809 c4.512-3.352,8.108-8.04,10.112-13.742l1.243-3.538c3.502-9.948-1.726-20.839-11.668-24.333l-59.138-20.78 c-6.759-2.375-10.868-9.548-8.934-16.446c2.118-7.558,10.13-11.645,17.417-9.084l64.291,22.591 c7.336,2.577,15.372-1.279,17.949-8.615s-1.279-15.372-8.615-17.949l-63.856-22.438c-6.759-2.375-10.868-9.548-8.934-16.446 c2.119-7.558,10.13-11.645,17.417-9.084l64.291,22.591c7.336,2.577,15.372-1.279,17.949-8.615 c2.577-7.336-1.279-15.372-8.615-17.949l-63.852-22.441c-6.759-2.375-10.868-9.548-8.934-16.446 c2.118-7.558,10.13-11.645,17.417-9.084l64.291,22.591c7.336,2.577,15.372-1.279,17.949-8.615 C193.768,284.797,189.912,276.762,182.575,274.185z"/> </g> </g> </g> </g>
</svg>