<!DOCTYPE svg PUBLIC "-//W3C//DTD SVG 1.1//EN" "http://www.w3.org/Graphics/SVG/1.1/DTD/svg11.dtd">
<!-- Uploaded to: SVG Repo, www.svgrepo.com, Transformed by: SVG Repo Mixer Tools -->
<svg height="800px" width="800px" version="1.1" id="_x32_" xmlns="http://www.w3.org/2000/svg" xmlns:xlink="http://www.w3.org/1999/xlink" viewBox="0 0 512 512" xml:space="preserve" fill="#fff" stroke="#fff">
<g id="SVGRepo_bgCarrier" stroke-width="0"/>
<g id="SVGRepo_tracerCarrier" stroke-linecap="round" stroke-linejoin="round"/>
<g id="SVGRepo_iconCarrier"> <style type="text/css"> .st0{fill:#fff;} </style> <g> <path class="st0" d="M478.114,34.358c-37.976-37.983-90.6-46.943-125.629-11.898c-13.484,13.468-49.671,101.883-54.9,114.792 l-44.757,44.75C213.153,213.744,115.293,303.664,12.14,451.777c-15.556,22.346-15.863,37.02-2.638,50.262 c13.225,13.217,27.907,12.901,50.253-2.656c148.112-103.145,238.033-201.004,269.776-240.671l43.641-43.657l0.469,0.486 c0,0,101.834-41.01,116.378-55.547C525.056,124.957,516.089,72.349,478.114,34.358z M50.123,485.576 c-19.61,13.654-24.24,9.033-28.716,4.549c-4.484-4.484-9.122-9.114,4.548-28.732c98.24-141.048,188.524-224.768,224.371-255.442 l55.247,55.247C274.899,297.06,191.188,387.336,50.123,485.576z M317.625,246.807l-52.9-52.908l33.063-33.054l52.9,52.9 L317.625,246.807z"/> </g> </g>
</svg>