<!DOCTYPE svg PUBLIC "-//W3C//DTD SVG 1.1//EN" "http://www.w3.org/Graphics/SVG/1.1/DTD/svg11.dtd">
<!-- Uploaded to: SVG Repo, www.svgrepo.com, Transformed by: SVG Repo Mixer Tools -->
<svg fill="#fff" version="1.1" id="Capa_1" xmlns="http://www.w3.org/2000/svg" xmlns:xlink="http://www.w3.org/1999/xlink" width="800px" height="800px" viewBox="0 0 534.247 534.247" xml:space="preserve" stroke="#fff">
<g id="SVGRepo_bgCarrier" stroke-width="0"/>
<g id="SVGRepo_tracerCarrier" stroke-linecap="round" stroke-linejoin="round"/>
<g id="SVGRepo_iconCarrier"> <g> <path d="M347.312,41.305c0,0,21.911-58.949,56.271-36.001c-26.072,21.867-22.93,76.074-22.93,76.074s113.611,28.099,104.199,58.332 c-15.643-14.599-23.982,0-23.982,0s67.788,46.903,55.234,83.387c-11.465-19.822-25.02-13.554-25.02-13.554 s-2.089,155.272-30.215,169.845c4.179-34.376-12.518-45.858-12.518-45.858s-15.608,190.345-60.414,195.238 c10.412-31.626-7.5-90.378-28.143-131.665c-20.645-41.287-62.521-125.039-62.521-125.039s-12.501,40.644-7.286,46.876 c-22.938,7.286-16.679-29.18-16.679-29.18s-94.833,136.505-118.79,105.253c28.144-17.715,18.742-56.27,18.742-56.27 s-34.376,57.306-39.59,42.698c15.563-7.964,20.831-79.146,20.831-79.146S54.455,454.408,108.662,533.607 C30.499,548.196-8.065,309.546,33.633,200.159C75.339,90.735,217.076-4.098,266.051,15.724 C314.99,35.51,347.312,41.305,347.312,41.305z"/> </g> </g>
</svg>