<?xml version="1.0" encoding="iso-8859-1"?>
<!-- Uploaded to: SVG Repo, www.svgrepo.com, Generator: SVG Repo Mixer Tools -->
<svg fill="white" height="800px" width="800px" version="1.1" id="Layer_1" xmlns="http://www.w3.org/2000/svg" xmlns:xlink="http://www.w3.org/1999/xlink" 
	 viewBox="0 0 503.607 503.607" xml:space="preserve">
<g>
	<g>
		<path d="M458.425,61.675c0.462-3.97,0.873-7.949,1.234-11.961c15.452-2.996,27.161-16.602,27.161-32.927
			c0-3.819-0.638-7.571-1.897-11.155c-1.175-3.349-4.348-5.607-7.915-5.607L429.509,0h-0.008c-3.55,0-6.723,2.241-7.907,5.59
			c-1.276,3.584-1.922,7.353-1.922,11.197c0,14.89,9.804,27.388,23.233,31.778c-0.319,3.517-0.68,7.008-1.074,10.492
			c-17.081,1.561-30.552,15.797-30.552,33.272c0,13.043,7.554,24.249,18.44,29.805c-1.2,4.323-2.459,8.586-3.794,12.8
			c-2.031-0.386-4.113-0.638-6.253-0.638c-18.508,0-33.574,15.058-33.574,33.574c0,11.381,5.716,21.412,14.395,27.489
			c-1.435,2.627-2.904,5.221-4.398,7.781c-3.181-1.007-6.488-1.695-9.997-1.695c-18.508,0-33.574,15.058-33.574,33.574
			c0,6.765,2.048,13.043,5.506,18.323c-2.594,2.61-5.212,5.128-7.881,7.546c-5.993-5.59-13.975-9.082-22.805-9.082
			c-18.508,0-33.574,15.058-33.574,33.574c0,3.173,0.588,6.186,1.41,9.09c-4.054,1.427-8.125,2.652-12.246,3.668
			c-4.961-12.372-17.013-21.151-31.131-21.151c-14.109,0-26.171,8.78-31.123,21.151c-4.121-1.024-8.192-2.241-12.254-3.668
			c0.831-2.904,1.41-5.917,1.41-9.09c0-18.516-15.058-33.574-33.574-33.574c-8.822,0-16.804,3.492-22.805,9.082
			c-2.661-2.417-5.279-4.935-7.873-7.546c3.45-5.271,5.498-11.558,5.498-18.323c0-18.516-15.058-33.574-33.574-33.574
			c-3.5,0-6.815,0.688-9.997,1.695c-1.494-2.56-2.954-5.145-4.39-7.781c8.679-6.077,14.386-16.107,14.386-27.489
			c0-18.516-15.058-33.574-33.574-33.574c-2.14,0-4.222,0.252-6.245,0.638c-1.335-4.23-2.594-8.486-3.794-12.8
			c10.886-5.556,18.432-16.762,18.432-29.805c0-17.484-13.471-31.71-30.544-33.272c-0.403-3.492-0.764-6.983-1.083-10.492
			c13.438-4.39,23.233-16.888,23.233-31.778c0-3.844-0.638-7.613-1.914-11.197C80.829,2.241,77.665,0,74.106,0L26.599,0.025
			c-3.559,0-6.732,2.258-7.915,5.607c-1.259,3.584-1.897,7.336-1.897,11.155c0,16.325,11.717,29.931,27.17,32.927
			c0.361,4.004,0.764,7.982,1.234,11.961c-11.759,5.229-20.01,16.972-20.01,30.653c0,18.088,14.395,32.768,32.306,33.448
			c1.536,5.582,3.181,11.096,4.935,16.535c-7.311,6.169-12.061,15.276-12.061,25.558c0,18.516,15.066,33.574,33.574,33.574
			c1.108,0,2.157-0.218,3.24-0.327c1.964,3.693,3.987,7.294,6.06,10.836c-5.724,6.026-9.3,14.118-9.3,23.065
			c0,18.516,15.066,33.574,33.574,33.574c5.657,0,10.903-1.536,15.587-4.012c3.701,3.76,7.47,7.328,11.314,10.71
			c-1.016,3.206-1.721,6.547-1.721,10.089c0,18.516,15.066,33.574,33.574,33.574c9.199,0,17.542-3.727,23.611-9.745
			c6.194,2.325,12.464,4.214,18.801,5.699c1.779,13.631,11.675,24.635,24.735,28.042v19.389
			c-9.871,3.198-17.492,11.776-18.927,22.511l-11.675,87.56c-1.049,7.865,1.343,15.813,6.58,21.789
			c5.237,5.985,12.8,9.409,20.749,9.409h23.342c7.949,0,15.511-3.424,20.749-9.409c5.229-5.976,7.63-13.925,6.58-21.789
			l-11.675-87.56c-1.435-10.735-9.057-19.313-18.936-22.511v-19.389c13.06-3.408,22.956-14.412,24.744-28.042
			c6.329-1.477,12.607-3.374,18.793-5.699c6.068,6.018,14.412,9.745,23.611,9.745c18.516,0,33.574-15.058,33.574-33.574
			c0-3.534-0.697-6.874-1.712-10.081c3.844-3.391,7.613-6.967,11.306-10.718c4.684,2.476,9.929,4.012,15.587,4.012
			c18.516,0,33.574-15.058,33.574-33.574c0-8.947-3.567-17.039-9.292-23.065c2.073-3.55,4.096-7.151,6.06-10.836
			c1.083,0.109,2.124,0.327,3.232,0.327c18.516,0,33.574-15.058,33.574-33.574c0-10.282-4.751-19.389-12.053-25.558
			c1.746-5.422,3.391-10.928,4.927-16.535c17.912-0.68,32.306-15.36,32.306-33.448C478.426,78.647,470.184,66.904,458.425,61.675z"
			/>
	</g>
</g>
</svg>