<svg width="45" height="45" viewBox="0 0 45 45" fill="none" xmlns="http://www.w3.org/2000/svg">
<g clip-path="url(#clip0_35_2087)">
<path fill-rule="evenodd" clip-rule="evenodd" d="M19.6447 17.1667C18.9374 17.1667 18.2591 17.4476 17.759 17.9477C17.2589 18.4478 16.978 19.1261 16.978 19.8333C16.978 20.5406 17.2589 21.2189 17.759 21.7189C18.2591 22.219 18.9374 22.5 19.6447 22.5C20.3519 22.5 21.0302 22.219 21.5303 21.7189C22.0304 21.2189 22.3113 20.5406 22.3113 19.8333C22.3113 19.1261 22.0304 18.4478 21.5303 17.9477C21.0302 17.4476 20.3519 17.1667 19.6447 17.1667ZM18.3113 23.1667C17.6041 23.1667 16.9258 23.4476 16.4257 23.9477C15.9256 24.4478 15.6447 25.1261 15.6447 25.8333V26.5C15.6447 26.8536 15.7851 27.1928 16.0352 27.4428C16.2852 27.6929 16.6244 27.8333 16.978 27.8333H22.3113C22.6649 27.8333 23.0041 27.6929 23.2541 27.4428C23.5042 27.1928 23.6447 26.8536 23.6447 26.5V25.8333C23.6447 25.1261 23.3637 24.4478 22.8636 23.9477C22.3635 23.4476 21.6852 23.1667 20.978 23.1667H18.3113ZM23.1447 21.77C23.4633 21.1967 23.6447 20.5367 23.6447 19.8333C23.6448 19.1556 23.4727 18.489 23.1447 17.896C23.5232 17.5378 23.9984 17.2984 24.5115 17.2073C25.0246 17.1163 25.5532 17.1776 26.0319 17.3837C26.5106 17.5897 26.9184 17.9315 27.2049 18.3668C27.4914 18.8021 27.6441 19.3119 27.6441 19.833C27.6441 20.3541 27.4914 20.8639 27.2049 21.2992C26.9184 21.7345 26.5106 22.0763 26.0319 22.2823C25.5532 22.4884 25.0246 22.5497 24.5115 22.4586C23.9984 22.3676 23.5232 22.1282 23.1447 21.77ZM24.622 27.8333C24.8487 27.4413 24.9787 26.986 24.9787 26.5V25.8333C24.9799 24.8492 24.6171 23.8993 23.96 23.1667H26.3113C27.0186 23.1667 27.6968 23.4476 28.1969 23.9477C28.697 24.4478 28.978 25.1261 28.978 25.8333V26.5C28.978 26.8536 28.8375 27.1928 28.5875 27.4428C28.3374 27.6929 27.9983 27.8333 27.6447 27.8333H24.622Z" fill="white"/>
<path d="M38.6697 10.8277C39.4162 10.305 39.6023 9.27162 39.0251 8.56642C36.89 5.95745 34.1785 3.86808 31.0954 2.46821C27.5104 0.840411 23.5542 0.204557 19.6396 0.626989C15.7251 1.04942 11.9956 2.51466 8.84034 4.86981C5.6851 7.22497 3.21973 10.3837 1.70146 14.0165C0.183191 17.6493 -0.332334 21.623 0.208676 25.5229C0.749686 29.4229 2.3274 33.1062 4.77721 36.1885C7.22702 39.2708 10.4591 41.6392 14.1363 43.0466C17.2986 44.2569 20.6904 44.7183 24.0471 44.4046C24.9544 44.3198 25.5591 43.4613 25.4065 42.5629C25.254 41.6644 24.4018 41.0675 23.4935 41.1403C20.721 41.3624 17.9264 40.9637 15.3159 39.9646C12.1903 38.7684 9.44296 36.7552 7.36063 34.1352C5.27829 31.5153 3.93723 28.3845 3.47737 25.0695C3.01751 21.7545 3.45571 18.3769 4.74624 15.289C6.03677 12.2012 8.13234 9.51623 10.8143 7.51434C13.4962 5.51246 16.6663 4.26701 19.9937 3.90794C23.3211 3.54887 26.6838 4.08935 29.7311 5.47297C32.2763 6.6286 34.5235 8.33703 36.3134 10.466C36.8998 11.1635 37.9233 11.3504 38.6697 10.8277Z" fill="white" fill-opacity="0.25"/>
<path d="M34.3266 13.8688C34.6849 13.6179 34.7736 13.1227 34.5051 12.7774C32.9322 10.7544 30.8892 9.1398 28.5488 8.07711C25.9675 6.9051 23.1191 6.44728 20.3006 6.75143C17.4821 7.05558 14.7969 8.11055 12.5251 9.80627C10.2533 11.502 8.47824 13.7763 7.38509 16.3919C6.29193 19.0075 5.92075 21.8686 6.31028 24.6765C6.69981 27.4845 7.83576 30.1365 9.59963 32.3557C11.3635 34.575 13.6906 36.2803 16.3382 37.2935C18.7388 38.2123 21.3231 38.5317 23.8678 38.2295C24.3021 38.1779 24.5922 37.7669 24.519 37.3357C24.4458 36.9044 24.0369 36.6165 23.6023 36.6657C21.3375 36.9219 19.0402 36.6316 16.9044 35.8142C14.5216 34.9022 12.4271 33.3675 10.8397 31.3702C9.25219 29.3728 8.22983 26.986 7.87926 24.4589C7.52868 21.9317 7.86274 19.3568 8.84658 17.0027C9.83042 14.6487 11.428 12.6018 13.4726 11.0756C15.5172 9.5495 17.9339 8.60002 20.4705 8.32629C23.0072 8.05255 25.5708 8.46459 27.8939 9.5194C29.9762 10.4649 31.7969 11.8957 33.2058 13.6873C33.4762 14.0311 33.9683 14.1197 34.3266 13.8688Z" fill="white" fill-opacity="0.15"/>
</g>
<defs>
<clipPath id="clip0_35_2087">
<rect x="0.311279" y="0.5" width="44" height="44" rx="22" fill="white"/>
</clipPath>
</defs>
</svg>
