<svg width="45" height="45" viewBox="0 0 45 45" fill="none" xmlns="http://www.w3.org/2000/svg">
<g clip-path="url(#clip0_35_2063)">
<path d="M22.3113 21.1667C23.7841 21.1667 24.978 19.9728 24.978 18.5C24.978 17.0272 23.7841 15.8333 22.3113 15.8333C20.8386 15.8333 19.6447 17.0272 19.6447 18.5C19.6447 19.9728 20.8386 21.1667 22.3113 21.1667Z" fill="white"/>
<path d="M27.6446 26.1667C27.6446 27.8233 27.6446 29.1667 22.3112 29.1667C16.9779 29.1667 16.9779 27.8233 16.9779 26.1667C16.9779 24.51 19.3659 23.1667 22.3112 23.1667C25.2566 23.1667 27.6446 24.51 27.6446 26.1667Z" fill="white"/>
<path d="M38.6697 10.8277C39.4162 10.305 39.6023 9.27162 39.0251 8.56642C36.89 5.95745 34.1785 3.86808 31.0954 2.46821C27.5104 0.840411 23.5542 0.204557 19.6396 0.626989C15.7251 1.04942 11.9956 2.51466 8.84034 4.86981C5.6851 7.22497 3.21973 10.3837 1.70146 14.0165C0.183191 17.6493 -0.332334 21.623 0.208676 25.5229C0.749686 29.4229 2.3274 33.1062 4.77721 36.1885C7.22702 39.2708 10.4591 41.6392 14.1363 43.0466C17.2986 44.2569 20.6904 44.7183 24.0471 44.4046C24.9544 44.3198 25.5591 43.4613 25.4065 42.5629C25.254 41.6644 24.4018 41.0675 23.4935 41.1403C20.721 41.3624 17.9264 40.9637 15.3159 39.9646C12.1903 38.7684 9.44296 36.7552 7.36063 34.1352C5.27829 31.5153 3.93723 28.3845 3.47737 25.0695C3.01751 21.7545 3.45571 18.3769 4.74624 15.289C6.03677 12.2012 8.13234 9.51623 10.8143 7.51434C13.4962 5.51246 16.6663 4.26701 19.9937 3.90794C23.3211 3.54887 26.6838 4.08935 29.7311 5.47297C32.2763 6.6286 34.5235 8.33703 36.3134 10.466C36.8998 11.1635 37.9233 11.3504 38.6697 10.8277Z" fill="white" fill-opacity="0.25"/>
<path d="M34.3266 13.8688C34.6849 13.6179 34.7736 13.1227 34.5051 12.7774C32.9322 10.7544 30.8892 9.1398 28.5488 8.07711C25.9675 6.9051 23.1191 6.44728 20.3006 6.75143C17.4821 7.05558 14.7969 8.11055 12.5251 9.80627C10.2533 11.502 8.47824 13.7763 7.38509 16.3919C6.29193 19.0075 5.92075 21.8686 6.31028 24.6765C6.69981 27.4845 7.83576 30.1365 9.59963 32.3557C11.3635 34.575 13.6906 36.2803 16.3382 37.2935C18.7388 38.2123 21.3231 38.5317 23.8678 38.2295C24.3021 38.1779 24.5922 37.7669 24.519 37.3357C24.4458 36.9044 24.0369 36.6165 23.6023 36.6657C21.3375 36.9219 19.0402 36.6316 16.9044 35.8142C14.5216 34.9022 12.4271 33.3675 10.8397 31.3702C9.25219 29.3728 8.22983 26.986 7.87926 24.4589C7.52868 21.9317 7.86274 19.3568 8.84658 17.0027C9.83042 14.6487 11.428 12.6018 13.4726 11.0756C15.5172 9.5495 17.9339 8.60002 20.4705 8.32629C23.0072 8.05255 25.5708 8.46459 27.8939 9.5194C29.9762 10.4649 31.7969 11.8957 33.2058 13.6873C33.4762 14.0311 33.9683 14.1197 34.3266 13.8688Z" fill="white" fill-opacity="0.15"/>
</g>
<defs>
<clipPath id="clip0_35_2063">
<rect x="0.311279" y="0.5" width="44" height="44" rx="22" fill="white"/>
</clipPath>
</defs>
</svg>
