<svg viewBox="0 0 512 512.001" fill="#a1c9ff" xmlns="http://www.w3.org/2000/svg">
<path d="m462.441406 50.183594h-124.554687c-7.226563-29.523438-33.671875-50.304688-64.066407-50.351563h-207.875c-36.40625.039063-65.9062495 29.542969-65.945312 65.949219v330.355469c.0390625 36.40625 29.539062 65.910156 65.945312 65.949219h117.59375c4.796876 29.007812 29.855469 50.300781 59.253907 50.355468h219.648437c33.167969-.054687 60.035156-26.945312 60.058594-60.113281v-342.03125c-.023438-33.167969-26.890625-60.058594-60.058594-60.113281zm-439.941406 345.953125v-330.355469c.03125-23.984375 19.460938-43.417969 43.445312-43.449219h207.878907c23.984375.03125 43.417969 19.464844 43.445312 43.449219v330.355469c-.027343 23.984375-19.460937 43.417969-43.445312 43.449219h-207.878907c-23.984374-.03125-43.414062-19.464844-43.445312-43.449219zm477.5 56.1875c-.007812 20.75-16.8125 37.578125-37.558594 37.613281h-219.648437c-16.992188-.03125-31.855469-11.441406-36.269531-27.851562h67.296874c36.40625-.039063 65.90625-29.542969 65.945313-65.949219v-323.453125h122.675781c20.746094.039062 37.554688 16.867187 37.558594 37.613281zm0 0"/><path d="m158.914062 73.949219c-51.101562-.046875-92.5625 41.347656-92.59375 92.453125-.035156 51.097656 41.375 92.546875 92.476563 92.5625 51.101563.019531 92.535156-41.40625 92.535156-92.503906-.035156-51.046876-41.375-92.429688-92.417969-92.511719zm61.132813 135.785156c-3.046875-2.71875-6.265625-5.234375-9.652344-7.523437 2.59375-8.792969 4.179688-17.851563 4.738281-27h18.171876c-1.449219 12.441406-6.007813 24.316406-13.257813 34.523437zm-135.523437-34.523437h18.175781c.550781 9.070312 2.113281 18.054687 4.667969 26.777343-3.414063 2.285157-6.667969 4.796875-9.742188 7.523438-7.15625-10.167969-11.664062-21.953125-13.101562-34.300781zm13.101562-51.808594c3.074219 2.726562 6.328125 5.238281 9.742188 7.53125-2.554688 8.71875-4.117188 17.703125-4.667969 26.777344h-18.175781c1.4375-12.351563 5.945312-24.140626 13.101562-34.308594zm52.539062 5.03125c-7.230468-.832032-14.300781-2.703125-20.992187-5.554688 4.796875-10.222656 12-19.132812 20.992187-25.96875zm0 17.578125v11.699219h-29.914062c.445312-6.199219 1.433594-12.339844 2.960938-18.359376 8.601562 3.554688 17.6875 5.800782 26.953124 6.660157zm0 29.199219v11.691406c-9.269531.867187-18.359374 3.113281-26.960937 6.667968-1.523437-6.023437-2.519531-12.164062-2.960937-18.359374zm0 29.277343v31.523438c-8.992187-6.835938-16.195312-15.75-20.992187-25.972657 6.691406-2.851562 13.761719-4.722656 20.992187-5.550781zm17.5.011719c7.21875.851562 14.273438 2.75 20.945313 5.640625-4.796875 10.1875-11.984375 19.058594-20.945313 25.871094zm0-17.585938v-11.703124h29.921876c-.441407 6.234374-1.445313 12.414062-2.992188 18.46875-8.578125-3.605469-17.660156-5.886719-26.929688-6.765626zm0-29.203124v-11.699219c9.269532-.878907 18.347657-3.164063 26.929688-6.769531 1.542969 6.054687 2.550781 12.238281 2.992188 18.472656zm0-29.292969v-31.507813c8.960938 6.808594 16.144532 15.683594 20.945313 25.863282-6.671875 2.894531-13.726563 4.792968-20.945313 5.644531zm28.667969-26.898438c4.277344 2.480469 8.308594 5.378907 12.019531 8.652344-1.476562 1.3125-2.996093 2.570313-4.5625 3.757813-2.15625-4.324219-4.652343-8.476563-7.457031-12.410157zm-82.402343 12.636719c-1.605469-1.199219-3.148438-2.476562-4.65625-3.808594 3.769531-3.347656 7.867187-6.300781 12.226562-8.828125-2.851562 4.003907-5.382812 8.230469-7.570312 12.636719zm0 104.609375c2.1875 4.402344 4.71875 8.625 7.570312 12.636719-4.359375-2.53125-8.457031-5.488282-12.226562-8.835938 1.507812-1.328125 3.050781-2.605468 4.65625-3.808594zm89.859374.222656c1.570313 1.1875 3.085938 2.445313 4.5625 3.761719-3.710937 3.269531-7.734374 6.164062-12.019531 8.652344 2.804688-3.941406 5.300781-8.085938 7.457031-12.414063zm11.34375-61.277343c-.558593-9.152344-2.144531-18.210938-4.738281-27.003907 3.386719-2.289062 6.605469-4.804687 9.652344-7.527343 7.25 10.214843 11.808594 22.089843 13.257813 34.53125zm0 0"/><path d="m56.25 316.609375c-6.210938 0-11.25 5.039063-11.25 11.25v31.25c0 6.210937 5.039062 11.25 11.25 11.25s11.25-5.039063 11.25-11.25v-31.25c0-6.210937-5.039062-11.25-11.25-11.25zm0 0"/><path d="m107.5 316.609375c-6.210938 0-11.25 5.039063-11.25 11.25v31.25c0 6.210937 5.039062 11.25 11.25 11.25s11.25-5.039063 11.25-11.25v-31.25c0-6.210937-5.039062-11.25-11.25-11.25zm0 0"/><path d="m160 316.609375c-6.210938 0-11.25 5.039063-11.25 11.25v31.25c0 6.210937 5.039062 11.25 11.25 11.25s11.25-5.039063 11.25-11.25v-31.25c0-6.210937-5.039062-11.25-11.25-11.25zm0 0"/><path d="m211.25 316.609375c-6.210938 0-11.25 5.039063-11.25 11.25v31.25c0 6.210937 5.039062 11.25 11.25 11.25s11.25-5.039063 11.25-11.25v-31.25c0-6.210937-5.039062-11.25-11.25-11.25zm0 0"/><path d="m262.5 316.609375c-6.210938 0-11.25 5.039063-11.25 11.25v31.25c0 6.210937 5.039062 11.25 11.25 11.25s11.25-5.039063 11.25-11.25v-31.25c0-6.210937-5.039062-11.25-11.25-11.25zm0 0"/><path d="m445.523438 123.601562c-17.492188 0-31.664063 14.179688-31.664063 31.671876 0 17.484374 14.171875 31.664062 31.664063 31.664062 17.484374 0 31.664062-14.179688 31.664062-31.664062-.019531-17.480469-14.183594-31.652344-31.664062-31.671876zm0 45.835938c-7.828126 0-14.164063-6.34375-14.164063-14.164062 0-7.828126 6.335937-14.171876 14.164063-14.171876 7.820312 0 14.164062 6.34375 14.164062 14.171876-.007812 7.816406-6.347656 14.15625-14.164062 14.164062zm0 0"/><path d="m368.4375 110.0625h-15.625c-4.835938 0-8.75 3.917969-8.75 8.75v72.914062c0 4.835938 3.914062 8.75 8.75 8.75h15.625c24.964844 0 45.210938-20.238281 45.210938-45.203124 0-24.972657-20.246094-45.210938-45.210938-45.210938zm0 72.914062h-6.875v-55.414062h6.875c15.304688 0 27.710938 12.40625 27.710938 27.710938 0 15.300781-12.40625 27.703124-27.710938 27.703124zm0 0"/><path d="m458.023438 222.5625c-4.835938 0-8.75 3.917969-8.75 8.75v108.335938c0 4.828124 3.914062 8.75 8.75 8.75 4.828124 0 8.75-3.921876 8.75-8.75v-108.335938c0-4.832031-3.921876-8.75-8.75-8.75zm0 0"/><path d="m410.101562 222.5625c-4.828124 0-8.75 3.917969-8.75 8.75v125c0 4.835938 3.921876 8.75 8.75 8.75 4.835938 0 8.75-3.914062 8.75-8.75v-125c0-4.832031-3.914062-8.75-8.75-8.75zm0 0"/><path d="m363.226562 222.5625c-4.828124 0-8.75 3.917969-8.75 8.75v150c0 4.835938 3.921876 8.75 8.75 8.75 4.835938 0 8.75-3.914062 8.75-8.75v-150c0-4.832031-3.914062-8.75-8.75-8.75zm0 0"/>
</svg>
