<!DOCTYPE svg PUBLIC "-//W3C//DTD SVG 1.1//EN" "http://www.w3.org/Graphics/SVG/1.1/DTD/svg11.dtd">
<!-- Uploaded to: SVG Repo, www.svgrepo.com, Transformed by: SVG Repo Mixer Tools -->
<svg fill="#a1c9ff" version="1.1" id="Layer_1" xmlns="http://www.w3.org/2000/svg" xmlns:xlink="http://www.w3.org/1999/xlink" viewBox="0 0 512 512" xml:space="preserve" width="800px" height="800px">

<g id="SVGRepo_bgCarrier" stroke-width="0"/>

<g id="SVGRepo_tracerCarrier" stroke-linecap="round" stroke-linejoin="round"/>

<g id="SVGRepo_iconCarrier"> <g> <g> <path d="M0,16.72v41.526h101.512V16.72H0z M85.693,42.427H15.819v-9.889h69.875V42.427z"/> </g> </g> <g> <g> <path d="M289.483,366.315v-15.819h-52.294c-0.349-0.986-0.759-1.943-1.224-2.868l37.736-37.736l-11.186-11.186l-37.736,37.736 c-1.549-0.778-3.187-1.406-4.899-1.851v-52.643h-15.819v53.717c-0.577,0.237-1.141,0.497-1.695,0.776l-37.735-37.736 l-11.186,11.186l37.736,37.736c-0.465,0.925-0.875,1.882-1.224,2.868h-52.335v15.819h52.044c0.405,1.291,0.915,2.533,1.514,3.725 l-37.736,37.736l11.186,11.186l37.736-37.736c0.554,0.278,1.118,0.538,1.695,0.775v52.862h15.819v-51.786 c1.712-0.446,3.349-1.073,4.899-1.851l37.736,37.736l11.186-11.186l-37.736-37.735c0.599-1.192,1.11-2.435,1.515-3.726H289.483z M213.573,368.062c-5.089,0-9.229-4.14-9.229-9.229c0-5.089,4.139-9.23,9.229-9.23s9.23,4.14,9.23,9.23 S218.662,368.062,213.573,368.062z"/> </g> </g> <g> <g> <path d="M213.573,248.091c-61.062,0-110.741,49.678-110.741,110.742c0,61.063,49.678,110.741,110.741,110.741 s110.742-49.678,110.742-110.741C324.315,297.769,274.636,248.091,213.573,248.091z M286.019,420.093l-6.259-6.259l-11.185,11.186 l6.259,6.259c-15.042,12.739-34.086,20.886-54.952,22.262v-10.242h-15.819v9.982c-19.611-1.961-37.48-9.917-51.748-22.002 l6.258-6.258l-11.185-11.186l-6.258,6.259c-12.5-14.76-20.584-33.371-22.183-53.779h8.132v-15.819h-8.049 c1.756-20.071,9.781-38.364,22.105-52.916l6.253,6.252l11.185-11.186l-6.256-6.256c14.268-12.083,32.135-20.044,51.746-22.005 v8.071h15.818v-8.331c20.867,1.376,39.911,9.523,54.953,22.262l-6.259,6.259l11.185,11.186l6.259-6.259 c12.325,14.552,20.351,32.852,22.107,52.922h-8.097v15.819h8.173C306.603,386.721,298.519,405.333,286.019,420.093z"/> </g> </g> <g> <g> <rect x="460.325" y="445.404" width="18.982" height="15.819"/> </g> </g> <g> <g> <path d="M504.27,350.494v-38.951c0-14.657-10.864-26.818-24.962-28.867v-32.443c0-29.033-24.361-52.653-54.304-52.653H264.329 V65.186c0-17.274-14.053-31.328-31.327-31.328h-40.867c-5.34-10.177-16.006-17.139-28.273-17.139h-53.119v15.819h53.119 c8.874,0,16.095,7.221,16.095,16.095v177.945c-59.034,15.013-102.831,68.613-102.831,132.254 c0,75.238,61.21,136.449,136.449,136.449c63.179,0,116.46-43.164,131.919-101.549h150.688v8.437H512v-8.437v-8.437v-34.801H504.27 z M479.308,298.879c5.305,1.77,9.143,6.774,9.143,12.664v38.951h-9.143V298.879z M434.519,214.541 c16.634,4.063,28.97,18.525,28.97,35.693v32.135H326.531c-9.43-13.886-21.354-25.944-35.118-35.539l102.117-0.058 C413.362,246.772,430.03,233.012,434.519,214.541z M418.377,213.4c-3.635,10.217-13.4,17.554-24.852,17.554l-132.16,0.076 c-14.881-5.583-30.984-8.645-47.791-8.645c-6.031,0-11.972,0.399-17.798,1.161V213.4H418.377z M195.775,49.677h37.227 c8.552,0,15.509,6.958,15.509,15.51V197.58h-52.735V49.677z M213.573,479.464c-66.516,0-120.631-54.115-120.631-120.631 s54.114-120.631,120.631-120.631c66.516,0,120.631,54.115,120.631,120.631S280.089,479.464,213.573,479.464z M335.779,298.187 h127.71v52.307H349.767C348.633,331.803,343.717,314.117,335.779,298.187z M496.181,377.914H348.682 c0.537-3.819,0.921-7.687,1.133-11.6h146.367V377.914z"/> </g> </g> <g> <g> <path d="M496.181,410.565l-0.05,9.763c-7.253-5.886-16.486-9.421-26.533-9.421c-23.262,0-42.186,18.924-42.186,42.186 s18.924,42.186,42.186,42.186c23.248,0,42.164-18.903,42.185-42.146h0.001L512,410.646L496.181,410.565z M469.598,479.464 c-14.539,0-26.368-11.828-26.368-26.368c0-14.54,11.828-26.368,26.368-26.368c14.54,0,26.368,11.828,26.368,26.368 C495.966,467.634,484.138,479.464,469.598,479.464z"/> </g> </g> </g>

</svg>