<?xml version="1.0" encoding="UTF-8" standalone="no"?>
<svg
   xmlns:dc="http://purl.org/dc/elements/1.1/"
   xmlns:cc="http://creativecommons.org/ns#"
   xmlns:rdf="http://www.w3.org/1999/02/22-rdf-syntax-ns#"
   xmlns:svg="http://www.w3.org/2000/svg"
   xmlns="http://www.w3.org/2000/svg"
   viewBox="0 0 87.022797 122.6408"
   height="122.6408"
   width="87.022797"
   xml:space="preserve"
   id="svg2"
   version="1.1"><metadata
     id="metadata8"><rdf:RDF><cc:Work
         rdf:about=""><dc:format>image/svg+xml</dc:format><dc:type
           rdf:resource="http://purl.org/dc/dcmitype/StillImage" /></cc:Work></rdf:RDF></metadata><defs
     id="defs6"><clipPath
       id="clipPath18"
       clipPathUnits="userSpaceOnUse"><path
         id="path16"
         d="M 0,91.981 H 65.267 V 0 H 0 Z" /></clipPath></defs><g
     transform="matrix(1.3333333,0,0,-1.3333333,0,122.6408)"
     id="g10"><g
       id="g12"><g
         clip-path="url(#clipPath18)"
         id="g14"><g
           transform="translate(57.9175,39.4998)"
           id="g20"><path
             id="path22"
             style="fill:#fff;fill-opacity:1;fill-rule:nonzero;stroke:none"
             d="m 0,0 -1.5,-5.8 c 0,0 -0.4,-1.1 -1.4,-2.3 -1,-1.199 -1.701,-2.3 -1.701,-2.3 0,0 -1.099,-2.1 -2.2,-2.7 C -7.9,-13.7 -7.9,-21.6 -7.9,-21.6 v -11.199 c 0,0 -0.3,-2.201 -0.5,-3.401 -0.1,-0.599 -0.1,-1.3 -0.1,-1.9 0,-0.699 -0.601,-1.4 -1.301,-1.4 H -40.7 c 0,0 -1,0.701 -0.7,3.9 0.299,3.2 2.299,15.7 3,21 l 0.4,1.801 c 0,0 0,0.299 -0.3,1.099 -0.301,0.8 -6.1,8.3 -8.801,13 C -49.8,6 -56.5,14.1 -56.5,14.1 c 0,0 -1.9,2.5 -1.3,4.5 0.6,2 7.1,14.8 12.6,20 0,0 1.4,2 4.8,0.6 3.4,-1.4 9.6,-3.6 17.5,-7.5 0,0 1.599,-0.3 1.299,-2.4 -0.299,-2.1 -0.199,-4 -2.299,-4.9 -2.1,-0.9 -4.9,-2.5 -8.5,-2.3 0,0 -0.6,-0.3 -1.5,0.6 -0.701,0.7 -2.6,3 -4,4.1 -0.4,0.3 -0.9,0 -0.8,-0.5 0.2,-1.9 0.2,-5.5 -3.8,-6.4 0,0 0.2,-0.9 1.6,-1.1 1.4,-0.2 2.4,-0.6 3.6,-1.4 0,0 2.6,-0.6 3.5,-1 0.9,-0.4 1.6,-1.6 1.6,-1.6 l 13.599,-20.2 c 0,0 0.401,-1.899 -5.599,-4.5 -0.2,-0.1 -0.2,-0.399 0.099,-0.399 0.601,-0.101 1.5,-0.201 2.701,-0.201 0.599,0 1.2,-0.4 1.299,-1.1 0.5,-2.4 1.601,-8 1.401,-9.9 -0.2,-2.4 0.3,-3.299 0.3,-3.299 L -18,-30.6 c 0,-0.3 0.5,-0.3 0.5,0 0,1.6 0,3 -0.101,3.7 -0.299,1.7 -0.299,13.101 -0.299,13.101 0,0 -0.401,1.099 1.299,1.899 0.601,0.3 1.201,0.601 1.701,0.9 0.5,0.3 0.5,1.1 -0.1,1.3 -0.5,0.2 -0.9,0.401 -1.2,0.7 -0.8,0.8 -2.101,4.9 -2.101,4.9 l -2.5,7.1 -8.3,10.3 c -0.199,0.3 0,0.7 0.401,0.6 L -15.5,11.1 -9,4.9 C -8.4,4.4 -7.601,4.2 -6.9,4.6 L -6.801,4.7 3.5,14.2 Z" /></g><g
           transform="translate(35.9171,62.4002)"
           id="g24"><path
             id="path26"
             style="fill:#fff;fill-opacity:1;fill-rule:nonzero;stroke:none"
             d="m 0,0 -5.2,-6.6 c -0.4,-0.5 -1,-0.6 -1.6,-0.3 -1.9,1 -6,3.2 -7.2,4.4 -1.6,1.6 0.9,2.8 1.7,1.8 0.8,-1 0.7,-2.3 3.9,-1.5 C -5.3,-1.6 0,0 0,0" /></g><g
           transform="translate(62.2173,63.3001)"
           id="g28"><path
             id="path30"
             style="fill:#fff;fill-opacity:1;fill-rule:nonzero;stroke:none"
             d="m 0,0 2.6,-2.7 c 0.6,-0.6 0.6,-1.6 0,-2.2 l -13.5,-12.8 c -0.701,-0.7 -1.9,-0.7 -2.701,0 l -3.299,3.2 c -0.701,0.7 -0.701,1.3 0,2.1 L -4.7,2.2 c 0.599,0.6 1.5,0.7 2.2,0.1 z" /></g><g
           transform="translate(56.317,66.4002)"
           id="g32"><path
             id="path34"
             style="fill:#fff;fill-opacity:1;fill-rule:nonzero;stroke:none"
             d="m 0,0 -11.7,-14.3 c -0.8,-0.9 -2.1,-1.2 -3.1,-0.6 l -5.8,3 c -1.4,0.7 -1.8,2.5 -0.9,3.7 L -9.6,8.4 c 0.9,1.3 2.701,1.4 3.8,0.4 L -0.3,3.5 C 0.7,2.5 0.8,1 0,0" /></g><g
           transform="translate(33.1172,72.9998)"
           id="g36"><path
             id="path38"
             style="fill:#fff;fill-opacity:1;fill-rule:nonzero;stroke:none"
             d="m 0,0 -2.1,1 c -0.7,0.4 -1,1.3 -0.6,2 1.2,1.8 3.2,5 3.9,6.1 0.4,0.6 0.9,1.7 1.4,2.7 0.8,1.5 2.7,2 4.1,1.2 L 12.6,9.5 C 14.5,8.4 14.6,5.9 13.4,4.1 12.2,2.3 11.2,0.1 10.2,-1.3 8.4,-3.8 5.7,-7.1 4.3,-8.5 4.1,-8.7 3.7,-8.6 3.7,-8.3 c -0.1,1 -0.2,2.8 0.4,4.8 0,0 0.8,1.2 -0.7,2 C 1.9,-0.7 0,0 0,0" /></g><g
           transform="translate(34.9171,84.3001)"
           id="g40"><path
             id="path42"
             style="fill:#fff;fill-opacity:1;fill-rule:nonzero;stroke:none"
             d="m 0,0 -5.8,-8.1 c -0.5,-0.7 -1.5,-1 -2.3,-0.6 l -8.3,4 c -0.7,0.3 -0.9,1.2 -0.4,1.8 0.9,1.2 2.2,2.9 2.8,4 0.6,1 2,3.3 3.2,5.2 0.9,1.4 2.8,1.8 4.2,0.9 L -0.7,3.3 C 0.5,2.6 0.8,1.1 0,0" /></g></g></g></g></svg>