<?xml version="1.0" encoding="iso-8859-1"?>
<!-- Generator: Adobe Illustrator 16.0.0, SVG Export Plug-In . SVG Version: 6.00 Build 0)  -->
<!DOCTYPE svg PUBLIC "-//W3C//DTD SVG 1.1//EN" "http://www.w3.org/Graphics/SVG/1.1/DTD/svg11.dtd">
<svg fill="#ffe12c" version="1.1" id="Capa_1" xmlns="http://www.w3.org/2000/svg" xmlns:xlink="http://www.w3.org/1999/xlink" x="0px" y="0px"
	 width="31.376px" height="31.376px" viewBox="0 0 31.376 31.376" style="enable-background:new 0 0 31.376 31.376;"
	 xml:space="preserve">
<g>
	<g>
		<path d="M31.243,12.977c-0.249-0.57-0.78-0.948-1.389-0.984c-0.395-0.028-0.788,0.071-1.14,0.24
			c-0.193-0.158-0.42-0.288-0.676-0.372c-0.608-0.202-1.937-0.025-2.521,0.593c-1.221-1.665-3.035-3.005-5.196-3.876
			c-0.401,0.654-1.007,1.163-1.733,1.439c0.145,0.116,0.219,0.198,0.229,0.21c0.181,0.208,0.159,0.524-0.049,0.706
			c-0.096,0.082-0.211,0.123-0.328,0.123c-0.141,0-0.278-0.058-0.377-0.172c-0.027-0.03-0.805-0.849-2.837-0.849
			c-2.033,0-2.81,0.819-2.842,0.854c-0.185,0.201-0.5,0.219-0.704,0.037c-0.204-0.182-0.226-0.492-0.047-0.698
			c0.04-0.045,0.948-1.031,3.114-1.166c-0.38-0.431-0.662-0.95-0.793-1.529c-1.422,0.071-2.784,0.322-4.038,0.741
			C8.7,6.7,5.489,5.247,3.822,4.897c0,3.45,1.513,4.218,1.458,6.079c-1.272,1.18-2.201,2.598-2.675,4.162l-1.793-0.264
			c-0.544-0.08-0.901,0.296-0.793,0.835l0.717,3.585c0.108,0.539,0.646,0.98,1.196,0.98h0.805c0.638,1.77,1.87,3.332,3.512,4.551
			v5.384c2.726,0,4.936,0.078,4.936-2.062v-1.063c1.127,0.267,2.318,0.416,3.554,0.416c1.609,0,3.142-0.252,4.554-0.694v1.34
			c0,2.141,2.21,2.062,4.937,2.062v-6.211c1.872-1.749,3.01-4.016,3.01-6.498c0-1.667-0.517-3.235-1.419-4.618
			c0.335-0.518,1.574-0.709,2.062-0.546c0.136,0.045,0.26,0.105,0.371,0.179c-0.447,0.336-0.771,0.787-0.849,1.208
			c-0.055,0.294-0.07,1.015,0.979,1.35c0.133,0.042,0.259,0.063,0.375,0.063c0.38,0,0.671-0.213,0.798-0.604
			c0.166-0.51,0.005-1.305-0.468-1.915c0.236-0.091,0.488-0.139,0.735-0.125c0.501,0.03,0.825,0.374,0.96,0.685
			c0.152,0.351,0.115,0.717-0.102,0.979c-0.088,0.106-0.073,0.264,0.033,0.352c0.105,0.088,0.265,0.073,0.353-0.034
			C31.402,14.069,31.47,13.496,31.243,12.977z M7.072,15.373c-0.529,0-0.958-0.429-0.958-0.958s0.429-0.958,0.958-0.958
			c0.529,0,0.958,0.429,0.958,0.958S7.602,15.373,7.072,15.373z M29.081,14.375c-0.05,0.152-0.16,0.342-0.544,0.218
			c-0.492-0.157-0.707-0.419-0.64-0.782c0.062-0.331,0.352-0.696,0.741-0.959C29.056,13.346,29.197,14.018,29.081,14.375z"/>
		<circle cx="17.354" cy="6.76" r="2.492"/>
		<circle cx="13.862" cy="3.031" r="1.864"/>
		<circle cx="20.925" cy="4.093" r="1.301"/>
	</g>
</g>
<g>
</g>
<g>
</g>
<g>
</g>
<g>
</g>
<g>
</g>
<g>
</g>
<g>
</g>
<g>
</g>
<g>
</g>
<g>
</g>
<g>
</g>
<g>
</g>
<g>
</g>
<g>
</g>
<g>
</g>
</svg>
